<svg version="1.1" viewBox="200 400 1600 1600" width="1280" height="1280" xmlns="http://www.w3.org/2000/svg">
    <path transform="translate(462 600)"
        d="m0 0c0.95-0 1.9-0 2.88-0.01h9.64c2.32-0.01 4.63-0.01 6.95-0.01 5.72-0.01 11.4-0.02 17.2-0.02 6.84 0 13.7-0.01 20.5-0.02 16.6-0.02 33.1-0.03 49.6-0.04 7.82 0 15.6-0.01 23.5-0.01 26.8-0.02 53.6-0.04 80.3-0.05h5.05 2.52 12.7 2.54c27.2-0.01 54.4-0.03 81.6-0.07 28.7-0.03 57.5-0.05 86.2-0.05h9.46 2.35c12.5-0.01 25-0.02 37.5-0.04 12.6-0.02 25.1-0.03 37.7-0.02 6.81 0.01 13.6 0 20.4-0.02 6.23-0.01 12.5-0.01 18.7 0 2.26 0.01 4.52 0 6.78-0.01 3.06-0.02 6.12-0.01 9.18 0.01 0.89-0.01 1.77-0.02 2.68-0.03 5.81 0.06 9.17 1.18 14 4.52 4.28 4.61 5.22 7.95 5.15 14.2-0.3 5.7-1.13 11.3-1.9 17-0.18 1.35-0.36 2.71-0.53 4.06-0.47 3.54-0.95 7.07-1.43 10.6l-1.44 10.9c-0.94 7.08-1.89 14.2-2.85 21.2 0.67 0.13 1.34 0.25 2.03 0.38 0.89 0.17 1.77 0.34 2.69 0.52 0.87 0.17 1.74 0.33 2.65 0.5 4.14 0.95 7.94 2.53 11.8 4.23 0.82 0.35 1.64 0.71 2.49 1.07 18.9 8.3 35.3 19.1 50.3 33.3 1.41 1.22 2.83 2.43 4.25 3.63 12.8 11.1 23.6 26.6 31.8 41.4 0.45 0.8 0.9 1.6 1.36 2.42 32.9 59.1 38.4 129 20.8 194-9.03 31.5-23.8 62-45.2 87-0.93 1.12-1.87 2.24-2.8 3.36-30.7 36.5-73.2 62.7-121 67.6-3.66 0.25-7.33 0.41-11 0.57-0.96 0.04-1.93 0.08-2.92 0.13-2.36 0.1-4.72 0.2-7.08 0.3-0.11 0.83-0.22 1.66-0.33 2.51-2.72 20.1-5.44 40.3-8.17 60.4-1.32 9.74-2.63 19.5-3.95 29.2-1.14 8.49-2.29 17-3.44 25.5-0.61 4.5-1.22 8.99-1.82 13.5-0.57 4.23-1.14 8.47-1.72 12.7l-0.63 4.65c-3.09 23.1-3.09 23.1-7.94 28.6-7.22 4.76-14 4.57-22.4 4.51-1.47 0-2.95 0-4.42 0.01-4.03 0.02-8.06 0.01-12.1-0.01-4.35-0.01-8.71 0-13.1 0.01-8.51 0.02-17 0.01-25.6-0.01-9.91-0.01-19.8-0.01-29.8-0.01-17.7 0.01-35.4 0-53.1-0.03-17.2-0.02-34.3-0.03-51.5-0.02-18.7 0.01-37.4 0.01-56.1 0-2 0-3.99 0-5.98-0.01h-2.97-20.8c-8.42 0.01-16.8 0-25.3-0.02-4.3-0.01-8.59-0.01-12.9 0-3.94 0-7.87 0-11.8-0.02-1.42-0.01-2.84 0-4.27 0-1.93 0.01-3.87 0-5.8-0.02h-3.26c-5.01-0.62-8.2-2.57-11.8-6.07-2.49-3.65-3.51-6.87-4.3-11.1-0.16-0.78-0.32-1.55-0.48-2.36-0.52-2.6-1-5.2-1.48-7.82-0.16-0.9-0.33-1.81-0.5-2.74-1.31-7.35-2.53-14.7-3.75-22.1-0.41-2.47-0.82-4.94-1.24-7.41-0.89-5.33-1.78-10.7-2.66-16-1.44-8.69-2.9-17.4-4.35-26-0.12-0.74-0.25-1.49-0.37-2.26l-1.92-11.5c-0.53-3.14-1.05-6.27-1.58-9.4-3.94-23.6-7.92-47.2-11.9-70.8-0.2-1.16-0.2-1.16-0.4-2.35-1.76-10.4-3.53-20.7-5.29-31.1-2.41-14.2-4.82-28.4-7.23-42.5-0.29-1.73-0.59-3.46-0.88-5.18-5.09-29.9-10.2-59.9-15.2-89.8-0.27-1.56-0.27-1.56-0.54-3.15-1.96-11.6-3.92-23.2-5.88-34.8-11.3-66.6-22.5-133-33.9-200l-2.19-12.8c-1.62-9.45-3.24-18.9-4.89-28.4-0.76-4.36-1.52-8.72-2.27-13.1l-1.08-6.15c-0.5-2.81-0.98-5.63-1.47-8.44-0.15-0.82-0.29-1.63-0.44-2.47-1.41-8.25-2.33-15.1 2.64-22.2 4.89-5.94 10.2-5.8 17.5-5.79zm14.9 33.1c1.31 9.16 2.67 18.3 4.22 27.4 0.22 1.27 0.43 2.54 0.65 3.85 0.59 3.46 1.17 6.92 1.76 10.4 0.63 3.72 1.26 7.43 1.88 11.1l3.66 21.6c1.43 8.44 2.86 16.9 4.28 25.3 3.39 20 6.79 40.1 10.2 60.1 0.36 2.09 0.71 4.18 1.06 6.26 4.77 28.2 9.55 56.3 14.3 84.5l17.7 104 1.41 8.28c6.94 40.9 13.9 81.8 20.8 123 0.2 1.22 0.2 1.22 0.41 2.46 3.09 18.3 6.18 36.5 9.26 54.8 1.87 11 3.73 22 5.59 33.1 1.22 7.17 2.43 14.4 3.64 21.5 0.75 4.46 1.51 8.92 2.26 13.4 0.35 2.06 0.7 4.11 1.04 6.17 0.47 2.78 0.94 5.56 1.41 8.33 0.14 0.82 0.27 1.63 0.41 2.46 0.52 3.06 1.08 5.95 2.06 8.89h320c2.56-14.4 2.56-14.4 4.7-28.8 0.14-1.03 0.14-1.03 0.28-2.07 0.14-1.06 0.14-1.06 0.29-2.14 0.21-1.54 0.42-3.09 0.63-4.63l1.71-12.6c0.61-4.55 1.23-9.1 1.85-13.6 1.22-8.95 2.43-17.9 3.64-26.8 1.44-10.6 2.89-21.3 4.33-31.9l9.24-68.1c0.15-1.15 0.31-2.29 0.47-3.47 0.15-1.14 0.31-2.29 0.47-3.47 1.66-12.3 3.33-24.6 4.99-36.8 6.29-46.4 12.6-92.7 18.8-139 4.43-32.7 8.85-65.3 13.3-98 1.21-8.88 2.41-17.8 3.61-26.6 0.17-1.24 0.34-2.48 0.51-3.75 0.67-4.96 1.35-9.91 2.02-14.9 1.96-14.5 3.93-29 5.89-43.4 1.22-8.98 2.44-18 3.65-26.9 0.71-5.19 1.41-10.4 2.12-15.6 0.64-4.75 1.28-9.5 1.93-14.2 0.23-1.73 0.47-3.45 0.7-5.18 0.32-2.33 0.63-4.66 0.95-6.99 0.26-1.95 0.26-1.95 0.53-3.94 0.27-1.93 0.27-1.93 0.37-3.87-35.1-0.43-70.1-0.77-105-0.97-4.14-0.02-8.29-0.04-12.4-0.07-0.82 0-1.65-0.01-2.5-0.01-13.3-0.09-26.7-0.24-40-0.41-13.7-0.18-27.4-0.28-41.1-0.32-8.45-0.03-16.9-0.11-25.3-0.27-5.8-0.1-11.6-0.13-17.4-0.1-3.35 0.01-6.68-0.02-10-0.11-13.4-0.8-13.4-0.8-25.3 4.11-4.05 4.46-6.92 9.41-9.53 14.8-1.65 3.37-3.65 6.47-5.65 9.65-5.77 10.4-11.6 23.1-8.95 35.2 5.68 18.3 22.3 30 37 40.9 7.1 5.26 13.8 10.8 20.5 16.6 0.75 0.62 1.49 1.24 2.25 1.88 17 14.3 25.6 30.1 27.8 52.1 0.29 3.53 0.55 7.06 0.76 10.6-0.02 2.36-0.02 2.36 1.24 3.41 2.91 0.13 5.81 0.19 8.72 0.22 1.82 0.02 3.64 0.05 5.46 0.08 2.87 0.04 5.74 0.08 8.61 0.11 2.77 0.02 5.53 0.07 8.3 0.12 0.85 0 1.69 0 2.56 0.01 12.2 0.25 22.7 4.85 31.6 13.2 12.6 13.4 16.1 30 16 47.8 0.01 1.81 0.01 1.81 0.01 3.66 0.02 3.28 0.02 6.56 0.02 9.84-0.01 2.76 0 5.51 0 8.27 0.01 6.51 0.02 13 0.01 19.5-0.01 6.68 0.01 13.4 0.03 20 0.01 5.77 0.02 11.5 0.02 17.3 0 3.43 0 6.86 0.01 10.3 0.11 33.4 0.11 33.4-7.13 46.8-0.35 0.67-0.7 1.34-1.06 2.04-5.6 10.4-13.2 17.6-24.4 21.7-10.9 3.22-22.4 2.44-33.6 2.4-2.51 0-5.02 0-7.53 0.01-5.9 0-11.8-0.01-17.7-0.03-4.69-0.02-9.38-0.01-14.1 0.01-6.5 0.02-13 0.02-19.5 0.01-2.46 0-4.93 0-7.39 0.01-3.46 0.01-6.91-0.01-10.4-0.03-1 0.01-2 0.02-3.03 0.03-11.5-0.14-22-3.77-30.6-11.6-13.1-14.3-17.3-30.6-17.3-49.6-0.01-1.21-0.01-2.41-0.02-3.66-0.01-3.28-0.01-6.56-0.01-9.84 0-2.76 0-5.51-0.01-8.27-0.01-6.51-0.01-13 0-19.5 0-6.68-0.01-13.4-0.03-20-0.02-5.77-0.02-11.5-0.02-17.3 0-3.43 0-6.86-0.01-10.3-0.08-22.7 0.33-43 17-60.4 9.59-8.74 19.3-12.2 32.1-12.4 0.84-0.02 1.68-0.04 2.54-0.07 2.66-0.06 5.32-0.12 7.98-0.18 1.8-0.04 3.61-0.09 5.42-0.13 4.42-0.11 8.84-0.21 13.3-0.31 0.02-2.4 0.04-4.81 0.05-7.22 0-0.68 0.01-1.36 0.01-2.06 0.05-12.4-4.75-20.8-13.3-29.5-7.03-6.95-14.7-12.8-22.7-18.7-9.07-6.74-17.8-13.8-26.1-21.5-0.78-0.72-1.56-1.45-2.36-2.2-13.5-13-23.5-30.7-24.1-49.8 0.76-18.4 8.16-34 16.4-50l3-6h-198zm537 83c-1.67 1.68-1.49 3.83-1.8 6.13-0.15 1.12-0.3 2.24-0.46 3.39-0.25 1.87-0.25 1.87-0.5 3.77-0.18 1.33-0.36 2.65-0.54 3.97-0.5 3.66-0.99 7.32-1.49 11-0.53 3.94-1.06 7.88-1.6 11.8-0.92 6.85-1.85 13.7-2.77 20.6-1.34 9.95-2.69 19.9-4.04 29.9-2.06 15.3-4.13 30.5-6.19 45.8-3.06 22.7-6.14 45.4-9.22 68.2-2.19 16.2-4.38 32.4-6.57 48.6-0.38 2.76-0.75 5.51-1.12 8.27-1.32 9.71-2.63 19.4-3.95 29.1-0.54 4.02-1.08 8.03-1.63 12-3.09 22.8-6.12 45.7-9.12 68.6 1.91 0.02 3.81 0.02 5.71 0.03 1.59 0.01 1.59 0.01 3.22 0.02 4.09-0.06 8.04-0.5 12.1-1.17 0.8-0.13 1.6-0.26 2.42-0.4 21.4-3.76 40.9-11.9 58.6-24.5 0.85-0.6 0.85-0.6 1.71-1.21 28.7-20.8 48.2-49.7 62.3-81.8 0.3-0.67 0.6-1.34 0.9-2.03 21.9-50.5 21.7-113 2.33-164-8.01-20-18.1-37.8-32.2-54.1-0.71-0.85-1.43-1.7-2.17-2.58-5.4-6.24-11.3-11.4-17.8-16.4-0.52-0.4-1.05-0.81-1.59-1.23-11.4-8.71-29.6-21.8-44.4-21.8zm-312 145c-4.15 7.15-4.11 13.9-4.11 21.9 0 1.18-0.01 2.35-0.02 3.56-0.02 3.87-0.02 7.74-0.02 11.6-0.01 1.34-0.01 2.68-0.01 4.02-0.02 7.01-0.03 14-0.03 21 0 6.52-0.02 13-0.05 19.5-0.02 5.62-0.04 11.2-0.03 16.8 0 3.35-0.01 6.69-0.03 10-0.02 3.74-0.01 7.47 0 11.2-0.01 1.09-0.02 2.18-0.04 3.3 0.08 9.1 1.86 18.4 8.52 25 6.47 4.31 15.5 3.15 23 3.14h3.54c3.79 0 7.58 0 11.4-0.01 1.29 0 2.58-0.01 3.91-0.01 7.83-0.02 15.7-0.05 23.5-0.1 3.43-0.01 6.87-0.03 10.3-0.04 4.83-0.02 9.66-0.06 14.5-0.13 1.74-0.02 3.47-0.04 5.21-0.04 2.38-0.01 4.76-0.05 7.15-0.1 1.97-0.02 1.97-0.02 3.99-0.05 5.09-0.95 7.98-3.42 11-7.72 0.29-0.64 0.58-1.28 0.89-1.94 0.3-0.64 0.61-1.27 0.92-1.93 1.5-4.05 1.89-7.97 1.91-12.3 0.01-1.03 0.01-2.05 0.02-3.11 0-1.12 0.01-2.24 0.01-3.39 0.01-1.77 0.01-1.77 0.02-3.58 0.02-3.92 0.03-7.84 0.04-11.8 0.01-1.35 0.01-2.71 0.01-4.06 0.02-6.36 0.04-12.7 0.05-19.1 0.01-7.32 0.03-14.6 0.07-22 0.03-5.67 0.05-11.3 0.05-17 0-3.38 0.01-6.76 0.04-10.1 0.02-3.78 0.02-7.56 0.01-11.3 0.02-1.11 0.03-2.21 0.04-3.35-0.06-8.97-1.96-17.4-8.51-24-3.78-2.61-7.84-2.25-12.3-2.19-0.8 0-1.59 0-2.41 0.01-2.52 0.01-5.05 0.03-7.58 0.06-1.71 0.01-3.43 0.02-5.14 0.03-4.21 0.02-8.41 0.05-12.6 0.09-0.03 1.54-0.03 1.54-0.07 3.1-0.23 8.99-0.47 18-0.73 27-0.13 4.45-0.24 8.9-0.31 13.4-0.04 1.64-0.09 3.27-0.14 4.91v2.1c-0.2 5.4-2.29 9.53-5.75 13.6-4.8 3.07-9.4 3.43-15 2.5-4.74-1.15-6.52-2.68-9.15-6.82-2.73-5.66-2.39-11.3-2.28-17.5 0.01-1.21 0.01-2.42 0.02-3.66 0.02-3.84 0.07-7.68 0.12-11.5 0.02-2.61 0.04-5.22 0.06-7.84 0.04-6.38 0.11-12.8 0.19-19.2-5.17-0.12-10.4-0.21-15.5-0.27-1.76-0.03-3.52-0.06-5.28-0.1-2.54-0.06-5.07-0.09-7.6-0.11-0.79-0.03-1.57-0.06-2.38-0.08-6.95-0.01-9.27 3.02-13.4 8.44z"
        fill="#112b3c" />
    <path transform="translate(755,297)"
        d="m0 0c4.99 2.49 8.5 5.99 11 11 0.76 5.83 0.58 11.2-2.88 16.1-3.44 3.13-7.57 4.91-11.8 6.86-16.1 7.52-29 18.5-35.7 35.4-7.56 23-1.22 44.8 5.37 67.1 9.18 31.1 13.1 67-0.06 97.6-3.36 5.59-6.72 8.91-13 11-5.26 0.4-8.56-0.11-13-3-3.21-3.36-5.91-6.43-7-11 0.17-4.97 1.29-9.01 2.94-13.7 9.68-28.2 1.46-57.8-6.37-85.3-8.69-30.6-9.14-60.2 6.22-88.9 3.42-5.86 7.76-11 12.2-16.1 0.84-1.01 0.84-1.01 1.7-2.04 11.1-12.3 33.3-26.9 50.3-25z"
        fill="#112b3c" />
    <path transform="translate(664 298)"
        d="m0 0c4.4 2.96 7.39 6.63 8.69 11.8 0.1 6-0.94 10.4-5 15-4.48 3.56-9.68 5.81-14.8 8.25-16 7.82-25.9 20.2-32.2 36.8-6.73 20 0.36 42.2 6.01 61.4 2.93 10.1 5.31 20.2 6.99 30.6 0.19 1.18 0.38 2.35 0.58 3.56 2.13 18.3 2 38.9-3.58 56.4-0.36 1.18-0.73 2.35-1.1 3.56-2.41 6.69-5.52 12-11.9 15.4-5.01 1.6-9.44 1.6-14.3-0.43-4.33-2.57-6.89-5.9-8.69-10.6-1.27-6.13 0.52-11.2 2.93-16.8 8.96-26.5 1.31-55.4-6-81.2-1.61-5.74-3.09-11.5-4.37-17.3-0.15-0.68-0.3-1.36-0.46-2.06-5.65-26.4-1.55-53.6 12.9-76.6 2.8-3.86 5.81-7.45 9-11 0.66-0.76 1.33-1.51 2.01-2.29 11.6-12.4 35.4-30.9 53.3-24.5z"
        fill="#112b3c" />
    <path transform="translate(852 299)"
        d="m0 0c4.75 3.54 6.73 6.49 8.12 12.2 0.34 4.42-0.5 8.39-2.93 12.1-4.24 4.01-8.54 6.44-13.8 8.87-6.39 3.06-11.8 6.48-17.2 11.1-0.81 0.6-1.62 1.21-2.46 1.83-10.1 8.56-15.9 22.3-17.5 35.2-1.34 18.7 3.07 35.2 8.42 52.9 2.93 9.89 4.98 19.9 6.58 30.1 0.19 1.22 0.38 2.44 0.58 3.7 2.49 21.2 2.87 51-10 69.4-3.08 3.37-6.1 5.17-10.6 5.95-4.95 0.12-9.42-0.08-13.4-3.19-4.27-4.69-6.18-8.57-6-15 0.77-4.9 2.54-9.48 4.25-14.1 8.17-25 0.01-53.7-6.98-78-8.88-30.9-10.6-59.9 4.48-89.3 3.34-5.99 7.11-11.2 11.7-16.3 0.8-0.9 1.6-1.79 2.42-2.72 11.3-11.9 37.1-33.6 54.4-24.7z"
        fill="#112b3c" />
</svg>