<svg version="1.1" viewBox="0 350 1600 1600" width="1280" height="1280" xmlns="http://www.w3.org/2000/svg">
    <path transform="translate(317 509)"
        d="m0 0c1.11-0 2.23-0.01 3.38-0.01 1.23 0 2.45 0 3.72 0.01 1.31-0.01 2.61-0.01 3.96-0.01 3.65-0.01 7.3 0 10.9 0 3.96 0 7.93-0.01 11.9-0.01 7.86-0.01 15.7-0.01 23.6-0.01 9.42 0 18.8-0.01 28.3-0.02 22.8-0.01 45.5-0.02 68.3-0.02 10.8-0.01 21.5-0.01 32.3-0.01 36.8-0.02 73.7-0.03 110-0.03h6.94 6.95 14 3.49c37.4-0.01 74.8-0.02 112-0.05 39.5-0.02 79.1-0.03 119-0.04h13 3.23c17.2 0 34.4-0.01 51.6-0.02 17.3-0.02 34.6-0.02 51.9-0.01 10.3 0 20.6 0 30.8-0.02 6.86-0.01 13.7-0.01 20.6 0 3.92 0.01 7.83 0.01 11.7 0 4.21-0.02 8.42-0.01 12.6 0.01 1.22-0.01 2.44-0.02 3.69-0.03 13.5 0.09 13.5 0.09 18.9 4.71 5.79 6.4 5.77 13.2 5.68 21.3 0 1.51 0 1.51-0.01 3.06-0.01 3.22-0.03 6.44-0.06 9.66l-0.03 6.57c-0.02 5.35-0.05 10.7-0.09 16.1 0.55 0.05 1.1 0.1 1.68 0.16 2.56 0.24 5.13 0.49 7.7 0.74 0.87 0.09 1.74 0.17 2.64 0.25 53.6 5.26 105 32.7 139 74.1 37.3 46.8 55.9 103 49.5 163-1.11 9.22-2.89 18.3-4.98 27.4-0.17 0.74-0.34 1.48-0.51 2.24-7.91 33.8-25.8 63.9-48.5 89.8-0.65 0.77-1.3 1.54-1.97 2.33-3.38 4.01-6.96 7.52-11 10.9-1.38 1.17-2.73 2.37-4.05 3.6-36 33.3-81.2 48.2-129 54.2-0.04 1.02-0.07 2.04-0.11 3.09-1.92 54.2-1.92 54.2-19 72.1-13.5 12.4-30 16.1-47.8 16-1.16 0.01-2.31 0.01-3.5 0.02-3.18 0.01-6.37 0.01-9.55 0-3.47 0-6.94 0.01-10.4 0.02-6.07 0.02-12.2 0.02-18.2 0.03-9.04 0-18.1 0.02-27.1 0.03-15.2 0.03-30.4 0.05-45.6 0.06-15.1 0.02-30.2 0.04-45.2 0.06h-2.84c-3.81 0.01-7.62 0.01-11.4 0.02-35.7 0.05-71.4 0.1-107 0.13-31.7 0.04-63.4 0.08-95.2 0.13h-6.11c-1 0.01-2.01 0.01-3.05 0.01-5.06 0.01-10.1 0.01-15.2 0.02-1 0-2 0.01-3.03 0.01-26.5 0.04-53 0.07-79.6 0.1-0.95 0.01-1.89 0.01-2.86 0.01-7.67 0.01-7.67 0.01-11.4 0.01-13.2 0.02-26.4 0.04-39.6 0.06-17 0.02-34 0.04-51 0.06-8.99 0-18 0.02-27 0.03-6.01 0.01-12 0.02-18 0.02-3.42 0-6.83 0-10.2 0.01-23.3 0.05-23.3 0.05-34.2-0.53-0.7-0.03-1.4-0.07-2.11-0.11-6.09-0.38-11.8-1.58-17.6-3.46-0.85-0.27-1.7-0.53-2.57-0.81-13.7-4.85-23.4-14.6-29.8-27.6-4.81-11.1-6.84-22.4-6.82-34.5 0-0.87-0.01-1.74-0.01-2.63-0.01-2.92-0.01-5.84-0.01-8.76 0-2.11-0.01-4.22-0.01-6.33-0.01-5.81-0.02-11.6-0.02-17.4-0.01-6.26-0.02-12.5-0.03-18.8-0.03-14.4-0.04-28.8-0.05-43.2-0.01-4.98-0.01-9.96-0.02-15l-0.06-79.5v-18.4c0-0.76 0-1.53-0.01-2.31-0.01-24.7-0.04-49.5-0.08-74.2-0.04-25.4-0.07-50.9-0.07-76.3-0.01-3.59-0.01-7.18-0.01-10.8v-2.14c0-11.4-0.02-22.8-0.05-34.1-0.02-11.4-0.03-22.9-0.02-34.3 0-6.19 0-12.4-0.02-18.6-0.03-5.66-0.03-11.3-0.01-17 0.01-2.05 0-4.1-0.01-6.15-0.02-2.79-0.01-5.57 0.01-8.36-0.01-0.8-0.03-1.6-0.04-2.42 0.09-5.92 1.92-9.96 5.66-14.5 4.62-3.5 8.75-4.13 14.4-4.13zm13.6 33.1c-0.06 46.6-0.1 93.1-0.13 140v2.09l-0.03 44.9c0 7.34 0 14.7-0.01 22v2.22c-0.01 23.7-0.04 47.4-0.06 71.1-0.03 24.3-0.05 48.7-0.06 73v10.3 2.06c0 10.9-0.02 21.8-0.03 32.7-0.02 11-0.03 21.9-0.02 32.9 0 5.94-0.01 11.9-0.02 17.8-0.02 5.44-0.02 10.9-0.01 16.3 0 1.97 0 3.93-0.01 5.9-0.33 19.3-0.33 19.3 8.38 36 5.67 4.07 11 6.12 17.9 6.13h3.03 3.33c1.17 0 2.34 0 3.55 0.01h9.8c3.55 0 7.1 0 10.6 0.01 7.05 0 14.1 0.01 21.2 0.01 8.43 0 16.9 0.01 25.3 0.01 20.4 0.02 40.8 0.02 61.2 0.03 9.64 0 19.3 0 28.9 0.01 33 0.01 66 0.02 99 0.03h6.21 6.24 12.5 3.14c33.5 0 67 0.02 101 0.04 35.4 0.03 70.9 0.04 106 0.04h11.7 2.9c15.4 0 30.8 0.01 46.2 0.03 15.5 0.01 31 0.02 46.5 0.01 9.21-0.01 18.4 0 27.6 0.01 6.15 0.01 12.3 0.01 18.4 0 3.5 0 7.01 0 10.5 0.01 3.78 0.01 7.55 0 11.3-0.01 1.08 0.01 2.17 0.01 3.29 0.02 7.89-0.05 14.3-1.19 20.9-5.58 9.24-9.67 9.85-23.7 9.81-36.4 0-0.82 0-1.64 0.01-2.49 0-2.74 0-5.49-0.01-8.23 0-1.99 0.01-3.98 0.01-5.97v-16.4c-0.01-5.89 0-11.8 0-17.7 0.01-11.5 0-23.1 0-34.6v-28.1-2.02-8.11-76c-0.01-22.5-0.01-45.1 0-67.6v-76-8.09-2.01-30.1c0.01-11.4 0-22.8 0-34.2v-17.5c0-5.32 0-10.6-0.01-16 0-1.94 0-3.87 0.01-5.81 0-2.61 0-5.22-0.01-7.83 0-0.77 0.01-1.54 0.01-2.33 0.3-3.43 0.3-3.43-1.13-6.28-1.61-0.1-3.23-0.13-4.84-0.13h-3.2-3.57-3.76c-3.48 0-6.96 0-10.4 0.01-3.77 0-7.54 0-11.3-0.01-6.62 0-13.2 0-19.9 0.01h-29.6c-16.6 0-33.1 0.01-49.7 0.01-16.4 0.01-32.8 0.01-49.2 0.01h-3.09-15.5c-36.7 0.01-73.4 0.01-110 0.02-35.6 0.01-71.3 0.02-107 0.02h-3.33c-11 0-22 0.01-33.1 0.01-22.5 0-44.9 0-67.4 0.01h-3.13c-69 0-138 0.02-207 0.04zm769 62v85l20 5c3.52 1.31 6.63 2.51 9.93 4.19 1.17 0.57 1.17 0.57 2.35 1.15 7.31 3.72 13.6 8.24 19.7 13.7 0.81 0.72 1.63 1.43 2.47 2.17 17.1 16 27.9 39.9 28.9 63.3 0.45 27.4-6.98 51.9-26.1 72.2-16.7 16.9-34.4 22.8-57.3 29.3v85c41.7-4.9 79.1-17.8 110-47 1.39-1.2 2.78-2.38 4.18-3.56 4.01-3.51 7.4-7.37 10.8-11.4 0.76-0.86 1.52-1.73 2.3-2.62 6.87-7.91 12.4-16.3 17.7-25.4 0.39-0.67 0.78-1.33 1.18-2.02 23.7-40.9 28.6-90.2 17.1-136-6.09-22.7-16.7-44.8-31.3-63.2-0.64-0.81-0.64-0.81-1.29-1.63-27.2-34.1-64.2-56.8-107-65.6-0.77-0.17-1.55-0.33-2.35-0.5-7.25-1.41-14-1.71-21.5-2.25zm0 118v125c20.6-6.35 34.5-14.4 44.8-33.8 7.84-16 8.55-34.5 2.92-51.3-6.09-16-17.8-28-33-35.6-5.04-2.18-9.21-3.45-14.7-4.36z"
        fill="#112b3c" />
    <path transform="translate(395 604)"
        d="m0 0c0.83 0.27 1.65 0.55 2.51 0.83 2.71 0.89 5.41 1.81 8.12 2.72 1.91 0.64 3.83 1.28 5.75 1.91 3.97 1.32 7.93 2.65 11.9 3.99 5.61 1.88 11.2 3.75 16.8 5.6 18.2 6.02 36.3 12.1 54.4 18.4 5.85 2.02 11.7 4.03 17.6 5.93 0.84 0.27 1.69 0.54 2.56 0.82 1.44 0.47 2.89 0.92 4.34 1.37 7.04 2.25 11.4 5.45 15.1 11.9 4.54 13.6-1.49 34-3.01 48.2-0.42 3.95-0.83 7.89-1.25 11.8-1 9.46-2.01 18.9-3.02 28.4-0.47 4.46-0.95 8.91-1.42 13.4-0.09 0.89-0.19 1.78-0.29 2.7-0.77 7.3-1.55 14.6-2.32 21.9-0.5 4.66-0.99 9.32-1.49 14-2.68 25.2-5.32 50.4-7.91 75.6-0.64 6.21-1.29 12.4-1.93 18.6-0.09 0.86-0.18 1.73-0.27 2.61-0.45 4.29-0.89 8.58-1.34 12.9-0.95 9.17-1.9 18.3-2.83 27.5-0.64 6.27-1.28 12.5-1.94 18.8-0.38 3.6-0.75 7.2-1.11 10.8-0.39 3.9-0.8 7.8-1.22 11.7-0.1 1.13-0.21 2.26-0.32 3.42-0.72 6.46-1.9 11.2-5.33 16.8-5.48 4.36-10.1 5.54-17 5-3.61-0.9-3.61-0.9-7.32-2.17-0.68-0.23-1.37-0.46-2.07-0.7-2.25-0.76-4.49-1.54-6.73-2.32-1.59-0.54-3.17-1.08-4.75-1.62-4.19-1.42-8.37-2.86-12.6-4.3-4.29-1.48-8.58-2.94-12.9-4.41-4.9-1.67-9.81-3.34-14.7-5.03-1.13-0.38-1.13-0.38-2.27-0.78-1.47-0.5-2.93-1-4.4-1.51-3.53-1.21-7.06-2.41-10.6-3.57-1.02-0.34-1.02-0.34-2.06-0.69-1.85-0.6-3.7-1.21-5.55-1.81-9.76-3.41-9.76-3.41-12.2-8.26-2.78-7.73-4.36-15.5-5.71-23.6-0.25-1.47-0.5-2.95-0.76-4.42-0.83-4.94-1.64-9.88-2.43-14.8-0.21-1.33-0.21-1.33-0.43-2.7-6.91-43.2-12-86.6-14.6-130-0.05-0.82-0.1-1.64-0.15-2.48-0.94-16.5-1.05-33.1-1.04-49.6v-2.06c0.02-34.9 2-69.2 6.19-104 0.14-1.13 0.27-2.25 0.41-3.41 0.34-2.7 0.7-5.4 1.09-8.09 0.1-0.71 0.19-1.42 0.29-2.15 0.97-6.12 3.46-10 8.4-13.7 7.01-3.59 14.6-1.48 21.6 0.95zm1.19 35.4c-13 13-6.24 79.4-6.25 96.3 0.03 23 0.51 45.8 2.25 68.7 0.1 1.26 0.1 1.26 0.19 2.54 2.07 27.2 5.09 54.4 8.95 81.4 0.61 4.23 1.19 8.46 1.75 12.7 0.75 5.6 1.55 11.2 2.39 16.8 0.31 2.14 0.61 4.28 0.89 6.43 0.4 2.98 0.85 5.94 1.32 8.91 0.1 0.88 0.2 1.76 0.31 2.67 0.44 2.55 0.88 4.38 2.2 6.6 3.14 2.04 6.42 2.99 10 4 1.5 0.52 2.99 1.06 4.48 1.6 1.5 0.51 3 1.02 4.49 1.53 0.81 0.27 1.62 0.55 2.45 0.83 2.55 0.87 5.1 1.74 7.64 2.6 1.71 0.58 3.42 1.17 5.13 1.75 5.8 1.98 5.8 1.98 11.6 3.94 1.55 0.53 3.1 1.06 4.65 1.6 0.8 0.28 1.59 0.55 2.42 0.84 1.08 0.37 1.08 0.37 2.18 0.76 2.09 0.69 2.09 0.69 4.95 0.55 2.24-12.8 3.44-25.7 4.8-38.6 0.27-2.6 0.55-5.2 0.83-7.79 0.67-6.3 1.33-12.6 2-18.9 0.54-5.12 1.08-10.2 1.62-15.4 1.71-16.1 3.41-32.2 5.12-48.4 1.34-12.7 2.68-25.4 4.03-38.1 1.39-13.1 2.77-26.1 4.15-39.2 0.77-7.33 1.55-14.6 2.33-22 0.73-6.89 1.46-13.8 2.18-20.6 0.26-2.52 0.53-5.05 0.8-7.57 0.37-3.45 0.73-6.9 1.09-10.3 0.16-1.49 0.16-1.49 0.33-3.01 0.62-6.08 0.85-12.1 0.72-18.2-24.4-8.4-48.9-16.7-73.4-24.8-0.68-0.23-1.36-0.45-2.05-0.69-7.74-2.57-15.5-5.14-23.2-7.71-1.78-0.6-3.57-1.19-5.36-1.79z"
        fill="#112b3c" />
</svg>