<svg version="1.1" viewBox="0 250 1600 1600" width="1280" height="1280" xmlns="http://www.w3.org/2000/svg">
    <path transform="translate(534 864)"
        d="m0 0c0.9 0 1.8 0 2.73 0.01 24.2 0.09 57.9 0.41 78.2 15.5 2.77 3.79 3.87 7.12 4.06 11.8-0.73 4.62-2.48 7.87-6 10.9-4.61 3.17-8.55 3.55-14 3.06-3.66-0.76-7.23-1.78-10.8-2.81-52.8-14.4-108-6.66-155 20.1-4.05 2.39-7.91 4.99-11.7 7.72-1 0.71-1.99 1.41-3.01 2.14-15.4 11.2-29.3 23.8-41 38.9-0.42 0.54-0.84 1.07-1.28 1.62-18.2 23.3-31.1 50.5-37.7 79.4-0.21 0.9-0.42 1.79-0.64 2.72-5.74 25.9-6.17 56.3-0.36 82.3 0.26 1.2 0.26 1.2 0.53 2.42 1.29 5.59 2.8 11.1 4.47 16.6 0.2 0.69 0.41 1.37 0.62 2.08 6.36 20.8 16.6 40.4 29.4 57.9 0.41 0.59 0.83 1.18 1.25 1.78 5.98 8.43 13 15.8 20.2 23.1 0.86 0.88 1.73 1.76 2.62 2.66 11.4 11.9 11.4 11.9 26.4 16.6 0.93 0 1.86 0.01 2.82 0.01 1.03 0 2.06 0 3.11-0.01 1.09 0.01 2.19 0.01 3.31 0.01 3.7 0.01 7.39 0 11.1 0 2.66 0.01 5.32 0.01 7.98 0.01 6.58 0.01 13.2 0.01 19.7 0.01 7.87 0 15.7 0.01 23.6 0.02 19 0.01 38 0.02 57.1 0.02 9 0.01 18 0.01 27 0.01 30.8 0.02 61.6 0.03 92.3 0.03h5.8 5.81 11.7 2.92c31.2 0.01 62.5 0.02 93.8 0.05 33 0.02 66.1 0.03 99.1 0.04h10.9 2.7c14.4 0 28.8 0.01 43.1 0.02 14.4 0.02 28.9 0.02 43.3 0.01 8.59 0 17.2 0 25.8 0.02 5.73 0.01 11.5 0.01 17.2 0 3.27-0.01 6.53-0.01 9.8 0 3.52 0.01 7.04 0.01 10.6-0.01 1.52 0.02 1.52 0.02 3.08 0.03 6.9-0.05 13.1-0.65 18.3-5.61 2-3.34 3.22-6.7 4.29-10.4 0.21-0.71 0.43-1.43 0.65-2.16 8.74-30 4.53-60.6-10-88-13.8-24.5-37.3-43.7-64.3-51.8-9.85-2.74-19.2-4.54-29.5-4.33-1.88 0.02-3.76 0.04-5.64 0.06-2.93 0.04-5.87 0.08-8.8 0.14-18.1 0.35-32.8-1.54-46.8-14.4-6.82-7.22-9.99-15.9-13.1-25.1-4.65-13.7-10.8-25.6-20.1-36.8-0.71-0.86-1.42-1.72-2.15-2.61-19-22.1-45.5-34.7-74.2-38.1-1.56-0.11-3.12-0.19-4.68-0.25-1.47-0.06-1.47-0.06-2.96-0.12-16.5-0.34-32 3.13-47.4 8.87-12.6 4.28-25.3 3.48-37.4-2-9.64-4.83-15.6-11.8-22.2-20.2-3.5-4.37-7.25-8.49-11.1-12.6-1.03-1.11-1.03-1.11-2.08-2.24-7.35-7.65-15.8-14.1-24.4-20.2-1.07-0.76-2.13-1.53-3.23-2.32-0.95-0.67-1.91-1.33-2.89-2.02-3.27-2.92-5.01-5.97-5.82-10.3 0.07-5.85 1.41-9.78 5.52-14.1 5.21-3.17 9.69-4.21 15.7-2.94 6 2.71 11.1 7.12 16.2 11.2 0.88 0.69 1.77 1.39 2.68 2.1 13.8 11 26.7 23.3 37.6 37.3 3.73 4.72 6.71 7.53 12.5 9.5 3.1 0.06 4.92-0.33 7.83-1.24 0.89-0.28 1.78-0.55 2.69-0.84 0.9-0.28 1.8-0.56 2.73-0.86l9.87-3.06c0.81-0.26 1.62-0.51 2.45-0.78 12.2-3.72 24-4.57 36.7-4.53h2.34c12.3 0.05 23.8 0.87 35.7 4.37 0.85 0.24 1.7 0.49 2.58 0.73 21.8 6.29 40.7 16.8 57.3 32.3 1.81 1.67 3.65 3.17 5.6 4.68 17.4 14.8 29.5 39.2 36 60.6 1.85 5.78 4.02 9.31 9.13 12.9 3.64 1.34 7.26 1.06 11.1 0.97 1.77-0.02 3.54-0.04 5.31-0.06 2.75-0.04 5.51-0.09 8.27-0.14 38.6-0.72 72.8 11.2 102 37.1 1.05 0.87 2.1 1.74 3.15 2.6 3.75 3.16 6.75 6.63 9.85 10.4 0.76 0.93 1.53 1.86 2.31 2.81 25.3 31.4 34.7 69.2 31.4 109-0.6 5.12-1.6 10.1-2.76 15.1-0.14 0.65-0.28 1.3-0.42 1.97-3.11 14.4-8.78 28.6-20.9 37.8-8.74 5.63-17.6 8.4-28 8.86-0.82 0.04-1.64 0.08-2.48 0.12-11.5 0.49-23 0.42-34.5 0.42h-7.87c-5.68 0.01-11.4 0.01-17 0.01-8.43 0-16.9 0-25.3 0.01-15.9 0.01-31.9 0.01-47.8 0.01-12.3 0-24.6 0-36.9 0.01h-10.6-2.67c-24.8 0-49.6 0.01-74.4 0.01h-2.83-14.2-2.85-5.7c-29.6 0-59.2 0-88.8 0.02-33.3 0.01-66.6 0.02-99.8 0.02h-10.6-2.64c-14 0-28.1 0.01-42.2 0.02-14.1 0-28.2 0.01-42.3 0-8.38 0-16.8 0-25.1 0.01-6.26 0-12.5 0-18.8-0.01-2.53 0-5.07 0-7.6 0.01-3.44 0-6.88 0-10.3-0.01-0.98 0.01-1.97 0.01-2.98 0.02-18.7-0.1-30.7-7.13-44.2-19.3-1.31-1.1-2.63-2.21-3.94-3.31-44.3-39.2-71.3-95.9-76.1-155-0.33-6.04-0.34-12.1-0.32-18.1 0.01-0.81 0.01-1.61 0.01-2.44 0.24-56.8 21.3-110 58.9-153 1.39-1.56 2.76-3.14 4.13-4.72 4.56-5.2 4.56-5.2 6.31-6.9h2v-2h2v-2c1.88-1.74 1.88-1.74 4.56-3.87 1.01-0.81 2.03-1.62 3.07-2.45 0.83-0.65 0.83-0.65 1.67-1.32 1.7-1.36 3.37-2.75 5.03-4.16 40.3-33.7 92.6-50.7 145-50.5z"
        fill="#112b3c" />
    <path transform="translate(1198 374)"
        d="m0 0c2.65 2.3 5.14 4.73 7.62 7.2 1.37 1.32 2.73 2.65 4.09 3.97 7.81 7.65 15.3 15.3 21.9 24 1.02 1.28 2.03 2.57 3.04 3.85 33.2 42.2 53.7 92 61 145 0.12 0.82 0.24 1.65 0.36 2.5 3.31 24.2 3.22 50.3-0.36 74.5-0.12 0.89-0.24 1.79-0.37 2.71-7.2 51.4-27.2 101-59.6 141-0.8 1.01-1.6 2.03-2.42 3.07-4.32 5.35-8.82 10.5-13.4 15.6-1.94 2.14-3.82 4.32-5.69 6.53-2.83 3.25-5.86 6.06-9.15 8.84-2.21 1.9-4.34 3.88-6.46 5.87-57.4 53.6-136 77.4-213 75.3-58.2-1.96-116-23.5-162-58.2-0.62-0.46-1.24-0.93-1.88-1.41-8.35-6.28-16.1-13.1-23.7-20.2-2.06-1.91-4.19-3.75-6.32-5.59-4.1-3.63-7.65-7.53-11.1-11.8-0.91-1.05-0.91-1.05-1.84-2.12-6.79-8.1-9.9-16.4-9.47-27 1.22-11.2 6.4-20.2 15.1-27.4 8.44-5.73 18.3-7.66 28.3-5.98 3.05 0.6 6.08 1.23 9.12 1.87 70.4 14.8 143 3.79 204-35.7 12.8-8.53 24.8-17.8 36-28.3 2.1-1.95 4.22-3.8 6.43-5.62 3.1-2.62 5.7-5.54 8.32-8.64 1.96-2.28 4-4.47 6.05-6.67 26.7-29.7 46.2-67.4 55.8-106 4.31-17.3 4.31-17.3 12-22.4 5.05-1.68 9.33-1.56 14.2 0.56 4.21 2.34 6.27 4.91 7.81 9.44 0.94 7.19-0.98 13.8-3 20.6-0.31 1.1-0.63 2.19-0.96 3.32-0.99 3.36-2.01 6.71-3.04 10.1-0.44 1.45-0.44 1.45-0.89 2.93-7.16 23.2-18.1 45.6-31.1 66.1-0.68 1.08-1.36 2.15-2.07 3.26-16.9 25.8-38.3 50.9-62.9 69.7-1.5 1.19-1.5 1.19-3.03 2.41-62.2 49.1-141 69.3-219 61.6-12-1.47-23.9-3.42-35.5-6.49-2.6-0.54-4.81-0.74-7.46-0.51-2.17 1.81-2.17 1.81-2.44 4.25 0.63 3.92 2.89 6.02 5.57 8.75 0.81 0.84 0.81 0.84 1.63 1.7 41.1 42.5 95.6 70.9 154 79.3 1.23 0.18 2.45 0.35 3.7 0.54 11.5 1.56 22.8 1.82 34.4 1.77h2.86c14.6-0.05 28.7-0.64 43.1-3.31 1.35-0.23 1.35-0.23 2.73-0.47 24.3-4.29 48.2-12.6 70.3-23.5 0.71-0.34 1.42-0.69 2.15-1.04 20.9-10.2 40.4-23.9 57.4-39.6 2.21-2.05 4.46-4.03 6.75-6 6.45-5.64 12-11.7 17.4-18.4 1.58-1.95 3.19-3.88 4.83-5.79 6.56-7.64 12.2-15.6 17.6-24.2 0.41-0.65 0.82-1.29 1.24-1.96 20.9-33.5 34.4-71.7 38.8-111 0.1-0.77 0.19-1.55 0.29-2.35 0.97-9.07 0.96-18.2 0.97-27.3v-2.61c-0.07-57.6-18.9-114-54.3-160-1.02-1.35-1.02-1.35-2.07-2.72-5.27-6.76-11-13.1-16.9-19.3-0.61-0.65-1.22-1.31-1.86-1.98-1.97-2.09-3.95-4.15-5.95-6.21-0.62-0.66-1.24-1.32-1.88-2-2.86-2.91-4.68-4.61-8.63-5.86-2.83-0.26-2.83-0.26-4.68 2.05 0.44 7.42 2.03 14.7 3.44 21.9 2.78 14.8 4.51 29.2 5.32 44.2 0.05 0.96 0.11 1.93 0.17 2.92 0.29 6.64 0.46 14.1-4.3 19.3-3.67 3.68-6.31 4.92-11.5 5-4.79-0.09-7.46-1.15-11.1-4.37-3.97-4.53-4.23-8.99-4.61-14.8-0.11-1.6-0.22-3.21-0.34-4.81-0.05-0.84-0.11-1.68-0.17-2.54-1.1-15.5-2.69-30.6-5.88-45.8-0.3-1.48-0.61-2.96-0.92-4.44-0.14-0.68-0.28-1.36-0.42-2.05-2.7-13.1-1.61-22.8 5.68-34.2 5.59-7.59 13.9-12.3 23.1-14 11.5-1.18 20.8 1.59 29.9 8.54z"
        fill="#000100" />
    <path transform="translate(665 578)"
        d="m0 0c8.93 8.19 14.2 19.9 15.2 31.8 0.39 14.4-3.78 26.1-13 37.2-8.76 9-21.8 14.4-34.4 14.6-12.8-0.14-24.5-4.72-33.9-13.2-10.3-11.1-14.6-23.2-14.3-38.1 0.85-10.7 4.95-19.4 11.3-27.9 0.48-0.65 0.95-1.29 1.45-1.96 17.4-20.2 48.3-17.3 67.6-2.45zm-46.4 26c-3.16 4.56-3.33 9.07-2.69 14.4 1.82 5.32 5.14 8.31 10 11 5 1.67 9.29 1.58 14.1-0.5 4.49-2.49 7.06-5.72 8.88-10.5 0.99-5.64 0.26-10.2-3-15-4.21-4.14-7.34-6.16-13.2-6.31-6.54 0.07-9.7 2.04-14.1 6.87z"
        fill="#000100" />
    <path transform="translate(439,712)"
        d="m0 0c0.87 0.58 1.73 1.15 2.62 1.75 9.65 9.14 15.2 21.9 15.7 35.1-0.33 13.6-5.67 25.2-14.9 34.9-10 9.52-22.5 13.6-36.2 13.5-13.5-0.91-25.1-7.37-34.2-17.2-7.64-10.2-11.8-22.3-10.8-35 2.06-14.5 8.29-24.8 19.4-34.2 17.5-13.1 41.3-11.9 58.4 1.21zm-43.3 26.6c-2.82 4.47-4.33 9.1-3.35 14.4 1.69 5.5 4.86 8.86 9.63 12 4.93 1.64 9.26 1.59 14.1-0.06 4.48-3.02 7.99-6.05 9.62-11.3 0.81-5.33 0.23-9.24-2.49-13.9-2.56-3.47-5.2-5.34-9.25-6.69-7.22-0.77-13.4-0.44-18.3 5.58z"
        fill="#000100" />
    <path transform="translate(522,308)"
        d="m0 0c5.27 1.86 7.79 4.6 11 9 1.06 3.18 1.11 5.43 1.1 8.76-0.01 1.68-0.01 1.68-0.01 3.39-0.01 1.75-0.01 1.75-0.03 3.54 0 1.18-0.01 2.36-0.01 3.57-0.01 2.91-0.03 5.83-0.05 8.74 0.73-0.02 1.45-0.03 2.2-0.05 3.31-0.06 6.62-0.1 9.92-0.14 1.15-0.02 2.29-0.05 3.47-0.07 6.75-0.06 11.9-0.04 17 4.8 4.13 5.39 5.18 8.7 4.36 15.5-2.36 4.64-5.68 8.9-10.8 10.6-2.65 0.48-5.15 0.51-7.84 0.5-1.61-0.01-1.61-0.01-3.24-0.01-1.11-0.01-2.23-0.02-3.37-0.03-1.69 0-1.69 0-3.41-0.01-2.78-0.01-5.56-0.03-8.34-0.05 0.02 0.73 0.03 1.45 0.05 2.2 0.06 3.31 0.1 6.62 0.14 9.92 0.02 1.15 0.05 2.29 0.07 3.47 0.07 7.7-0.49 12.4-5.82 18.2-4.02 3.09-8.5 3.46-13.4 3.19-5.29-1.7-7.82-4.64-11-9-1.06-3.18-1.11-5.43-1.1-8.76 0.01-1.12 0.01-2.24 0.01-3.39 0.01-1.75 0.01-1.75 0.03-3.54 0-1.18 0.01-2.36 0.01-3.57 0.01-2.91 0.03-5.83 0.05-8.74-0.73 0.02-1.45 0.03-2.2 0.05-3.31 0.06-6.62 0.1-9.92 0.14-1.15 0.02-2.29 0.05-3.47 0.07-6.76 0.06-11.8 0.01-17-4.76-3.87-4.96-4.79-8.22-4.36-14.5 1.89-5.26 4.6-7.79 9-11 3.18-1.06 5.43-1.11 8.76-1.1 1.12 0.01 2.24 0.01 3.39 0.01 1.17 0.01 2.33 0.02 3.54 0.03 1.18 0 2.36 0.01 3.57 0.01 2.91 0.01 5.83 0.03 8.74 0.05-0.02-0.73-0.03-1.45-0.05-2.2-0.06-3.31-0.1-6.62-0.14-9.92-0.02-1.15-0.05-2.29-0.07-3.47-0.06-6.75-0.04-11.9 4.8-17 5.01-3.84 8.12-5 14.5-4.36z"
        fill="#000100" />
    <path transform="translate(841 448)"
        d="m0 0c3.55 2.76 5.83 5.48 7.25 9.75 0.08 1.92 0.11 3.84 0.1 5.76-0.01 1.68-0.01 1.68-0.01 3.39-0.01 1.75-0.01 1.75-0.03 3.54 0 1.18-0.01 2.36-0.01 3.57-0.01 2.91-0.03 5.83-0.05 8.74 0.94-0.02 0.94-0.02 1.91-0.03 2.88-0.04 5.77-0.07 8.65-0.1 0.99-0.01 1.98-0.03 3-0.05 13.5-0.09 13.5-0.09 18.8 4.49 3.87 3.87 4.54 6.16 5.06 11.6-0.13 4.37-1.34 7.94-4.37 11.1-6.41 4.99-12.6 4.47-20.4 4.25-1.21-0.02-2.41-0.04-3.66-0.05-2.97-0.05-5.93-0.12-8.9-0.2 0.02 0.72 0.04 1.43 0.06 2.17 0.09 3.28 0.14 6.55 0.19 9.83 0.03 1.13 0.07 2.25 0.1 3.41 0.08 7.04-0.47 11.6-4.35 17.6-4.25 3.69-8.36 4.61-13.9 4.32-5.79-0.89-8.75-4.89-12.1-9.32-1.06-3.18-1.11-5.43-1.1-8.76 0.01-1.12 0.01-2.24 0.01-3.39 0.01-1.75 0.01-1.75 0.03-3.54 0-1.18 0.01-2.36 0.01-3.57 0.01-2.91 0.03-5.83 0.05-8.74-1.13 0.03-1.13 0.03-2.28 0.06-3.42 0.09-6.85 0.14-10.3 0.19-1.18 0.03-2.37 0.07-3.58 0.1-6.84 0.08-11.4-0.04-16.9-4.35-2.84-3.45-3.89-7.18-4.5-11.6 0.85-5.82 2.92-9.21 7.56-12.8 4.08-2.26 6.9-2.75 11.5-2.73 1.08 0.01 2.15 0.01 3.25 0.01 1.12 0.01 2.24 0.02 3.4 0.03 1.69 0 1.69 0 3.43 0.01 2.79 0.01 5.59 0.03 8.38 0.05-0.02-0.72-0.04-1.44-0.06-2.18-0.09-3.3-0.14-6.59-0.19-9.88-0.05-1.7-0.05-1.7-0.1-3.44-0.08-6.75 0.19-11.1 4.35-16.5 6.48-5.02 12.2-6.17 19.8-2.75z"
        fill="#000100" />
    <path transform="translate(1136,944)"
        d="m0 0c3.46 2.84 5.59 5.76 7 10 0.08 1.99 0.11 3.99 0.1 5.98-0.01 1.75-0.01 1.75-0.01 3.53-0.01 1.82-0.01 1.82-0.03 3.68 0 1.22-0.01 2.45-0.01 3.71-0.01 3.04-0.03 6.07-0.05 9.1 0.79-0.02 1.57-0.04 2.38-0.06 3.58-0.09 7.16-0.14 10.7-0.19 1.86-0.05 1.86-0.05 3.76-0.1 11.4-0.12 11.4-0.12 16.1 4.35 3.94 4.35 4.63 7.91 4.39 13.6-0.74 4.53-3.09 7.26-6.45 10.2-3.55 2.18-6.64 2.36-10.7 2.51-1.12 0.04-2.24 0.08-3.39 0.12-1.17 0.04-2.33 0.08-3.54 0.12-1.18 0.05-2.36 0.09-3.57 0.13-2.91 0.11-5.83 0.21-8.74 0.31-0.01 0.73-0.03 1.45-0.04 2.2-0.08 3.31-0.18 6.62-0.27 9.92-0.03 1.15-0.05 2.29-0.07 3.47-0.34 10.7-0.34 10.7-3.62 15.4-4.98 4.49-7.97 5.31-14.5 5.21-4.74-0.4-7.19-2.75-10.2-6.15-3.19-4.34-3.38-7.39-3.35-12.7 0.01-1.07 0.01-2.14 0.01-3.24 0.01-1.67 0.01-1.67 0.03-3.37 0-1.13 0.01-2.25 0.01-3.41 0.01-2.78 0.03-5.56 0.05-8.34-0.76 0.02-1.51 0.04-2.29 0.06-3.45 0.09-6.89 0.14-10.3 0.19-1.19 0.03-2.38 0.07-3.61 0.1-8.5 0.1-12-0.73-18.1-6.54-2.35-3.9-3-7.27-2.69-11.8 1.26-4.44 3.26-7.31 6.62-10.4 9.35-4.32 20.4-2.31 30.4-1.56-0.02-0.69-0.03-1.38-0.05-2.09-0.06-3.16-0.1-6.32-0.14-9.47-0.02-1.09-0.05-2.17-0.07-3.29-0.07-7.78 0.52-12.8 5.57-19 5.95-4.84 11.7-5 18.7-2.19z"
        fill="#000100" />
</svg>