<?xml version="1.0" encoding="UTF-8"?>
<svg version="1.1" viewBox="0 0 1600 1600" width="1280" height="1280" xmlns="http://www.w3.org/2000/svg">
<path transform="translate(1115,558)" d="m0 0h156c0 41.1 0 82.3-0.15 123-0.02 5.4-0.04 10.8-0.06 16.2-0.07 18.3-0.13 36.7-0.2 55-0.02 5.31-0.04 10.6-0.06 15.9-0.29 80.5-0.63 161-1.53 274h-1c-1.01-8.04-1.15-16-1.16-24.1 0-1.41-0.01-2.82-0.01-4.23-0.02-3.85-0.02-7.71-0.03-11.6-0.01-4.17-0.02-8.34-0.04-12.5-0.02-8.2-0.04-16.4-0.06-24.6-0.02-9.65-0.04-19.3-0.07-29-0.05-17.4-0.09-34.7-0.13-52.1-0.04-16.6-0.08-33.2-0.13-49.7 0-1.01 0-2.01-0.01-3.05-0.01-4.06-0.02-8.12-0.03-12.2-0.34-125-0.34-125-0.36-183v-3.88c-0.01-23.8 0.02-47.7 0.03-71.5h-146c0 9.64 0.01 19.3 0.01 29.2 0 6.87 0.01 13.7 0 20.6v2.78c-0.01 43.6-0.12 87.2-0.2 131l-0.09 46.7c-0.01 7.68-0.03 15.4-0.04 23v2.32c-0.04 18.1-0.07 36.2-0.11 54.3v2.39c-0.02 7.18-0.03 14.4-0.04 21.6-0.04 17.6-0.07 35.2-0.1 52.8 0 0.79-0.01 1.58-0.01 2.4-0.03 18.1-0.07 36.2-0.1 54.3v2.32c-0.02 7.66-0.03 15.3-0.05 23l-0.09 48.8c-0.02 11.8-0.04 23.7-0.07 35.6-0.01 6.38-0.02 12.8-0.03 19.1-0.07 34.6-0.09 69.3-0.08 104 7.92 0.33 15.8 0.66 24 1v1h-26c-0.7-81-1.19-162-1.56-243-0.01-1.21-0.01-2.41-0.02-3.65-0.41-89.5-0.5-179-0.47-337v-2.35c0.01-32 0.03-63.9 0.05-95.9z" fill="#000100"/>
<path transform="translate(591,715)" d="m0 0c20.2-0.02 40.4-0.04 60.6-0.05 9.37-0.01 18.8-0.01 28.1-0.03 8.17-0.01 16.3-0.01 24.5-0.01 4.32-0.01 8.65-0.01 13-0.02h12.2c1.5 0 3-0.01 4.5-0.01h6.11 3.46c2.54 0.12 2.54 0.12 3.54 1.12 0.1 2.89 0.13 5.76 0.11 8.65v2.84c0 3.23-0.01 6.45-0.02 9.67 0 2.35-0.01 4.7-0.01 7.05-0.02 8.26-0.05 16.5-0.08 24.8 0 0.77-0.01 1.54-0.01 2.33-0.1 25.1-0.23 50.3-0.38 75.4-0.04 6.69-0.07 13.4-0.11 20.1-0.2 39-0.45 77.9-1.13 117-0.47 26.8-0.69 53.6-0.9 80.4-0.05 6.58-0.11 13.2-0.16 19.7-0.11 12.7-0.21 25.4-0.31 38.2h-1c-0.13-40.9-0.26-81.9-0.38-123-0.02-4.87-0.03-9.75-0.05-14.6 0-0.97 0-1.95-0.01-2.95-0.04-15.5-0.09-31.1-0.14-46.6-0.05-16-0.1-32.1-0.15-48.2-0.03-9.83-0.06-19.7-0.09-29.5-0.02-6.83-0.05-13.6-0.07-20.5-0.01-3.89-0.02-7.77-0.03-11.7-0.12-35.4-0.08-70.8-0.08-106l-146 1v73c-0.04 19-0.09 38-0.15 56.9l-0.06 17.3c-0.07 19.6-0.13 39.3-0.2 58.9l-0.06 17c-0.29 84.2-0.61 168-1.53 295l41 1v1h-42c-0.74-59.2-1.21-118-1.56-178-0.01-0.93-0.01-1.86-0.02-2.81-0.48-82.4-0.5-165-0.42-345z" fill="#000100"/>
<path transform="translate(879 827)" d="m0 0c1.41 0.01 2.82 0.02 4.23 0.02 3.78 0.03 7.57 0.05 11.4 0.09 3.97 0.03 7.94 0.05 11.9 0.08 6.66 0.04 13.3 0.09 20 0.14 7.7 0.06 15.4 0.12 23.1 0.17 7.42 0.04 14.8 0.1 22.3 0.15 3.15 0.02 6.31 0.05 9.46 0.07 3.71 0.02 7.41 0.05 11.1 0.08 2.01 0.02 4.03 0.03 6.04 0.04 1.19 0.01 2.38 0.02 3.6 0.03 1.56 0.01 1.56 0.01 3.14 0.03 2.33 0.14 2.33 0.14 3.33 1.14 0.09 2.48 0.12 4.93 0.11 7.41v2.43c0 2.74-0.01 5.49-0.02 8.23-0.01 2-0.01 3.99-0.02 5.99-0.06 28.5-0.26 57.1-0.46 85.6-0.04 5.55-0.08 11.1-0.11 16.7-0.23 36.9-0.57 73.8-1.5 111h-2l-1-234h-146c0.01 10.6 0.02 21.2 0.03 32.1v23.5 3.25c-0.03 34.9-0.14 69.7-0.25 105 0 0.87-0.01 1.75-0.01 2.65-0.07 22.6-0.14 45.3-0.22 67.9-0.04 13.1-0.08 26.3-0.13 39.4 0 0.94 0 1.87-0.01 2.84-0.01 4.7-0.03 9.4-0.04 14.1-0.12 38.5-0.25 77-0.37 116h1.74c2.63-0.01 5.26-0.01 7.9-0.01h2.74c5.96 0 11.9 0.05 17.9 0.23 1.22 0.03 1.22 0.03 2.47 0.06 2.51 0.07 5.01 0.14 7.52 0.22 1.74 0.05 3.48 0.09 5.22 0.14 4.17 0.12 8.35 0.24 12.5 0.36v1h-60c-0.69-27.8-1.18-55.5-1.31-83.3-0.01-3.89-0.04-7.78-0.06-11.7-0.05-10.5-0.1-21-0.15-31.5-0.04-7.66-0.07-15.3-0.11-23-0.43-87.5-0.49-175-0.37-263 8.85-0.91 17.6-1.12 26.5-1.04z" fill="#000100"/>
<path transform="translate(329,935)" d="m0 0c20.1-0.02 40.1-0.04 60.2-0.05 9.31-0.01 18.6-0.01 27.9-0.03 8.11-0.01 16.2-0.01 24.3-0.01 4.3-0.01 8.6-0.01 12.9-0.02h12.1c1.49 0 2.98-0.01 4.46-0.01h6.07 3.44c2.53 0.12 2.53 0.12 3.53 1.12 0.1 1.41 0.13 2.82 0.13 4.22 0 0.92 0 1.83 0.01 2.78-0.01 1.52-0.01 1.52-0.01 3.07v3.23c0.01 3.59 0.01 7.17 0 10.8 0 2.53 0.01 5.06 0.01 7.59 0 6.81 0 13.6-0.01 20.4-0.01 4.22-0.01 8.44-0.01 12.7-0.01 34.7-0.11 69.4-0.53 104l-0.09 7.8c-0.38 33-0.38 33-1.5 49.3h-1l-1-222h-146v53c-0.02 9.5-0.05 19-0.09 28.5l-0.03 7.26c-0.03 6.36-0.05 12.7-0.08 19.1-0.03 6.03-0.05 12.1-0.08 18.1-0.05 11.9-0.1 23.8-0.15 35.7-0.05 11.5-0.09 23-0.14 34.6-0.01 0.71-0.01 1.43-0.01 2.17-0.02 3.61-0.03 7.21-0.05 10.8-0.12 29.6-0.24 59.2-0.37 88.8h1.67c5.83-0.01 11.6-0.02 17.5-0.03 2.16 0 4.33 0 6.49-0.01 16.5-0.03 32.9 0.21 49.4 1.04v1h-77c-1.13-7.88-1.13-7.88-1.16-11.3-0.01-1.19-0.01-1.19-0.03-2.4 0-0.85-0.01-1.7-0.02-2.58-0.01-1.38-0.01-1.38-0.03-2.8-0.03-3.11-0.05-6.22-0.08-9.33l-0.06-6.81c-0.06-6.26-0.11-12.5-0.15-18.8-0.03-3.96-0.06-7.92-0.1-11.9-0.64-79.7-0.46-159-0.37-239z" fill="#000100"/>
<path transform="translate(960,662)" d="m0 0c7.21 5.43 13.1 11.8 17 20l-1 2c-0.39-0.62-0.78-1.23-1.18-1.87-7.97-12.1-17.7-20.1-31.8-23.9-2.68-0.54-5.31-0.92-8.04-1.19-1.05-0.12-1.05-0.12-2.12-0.25-13.4-0.81-25.7 4.69-35.9 12.8-8.93 8.08-14.6 19.8-15.3 31.8-0.6 16.5 3.15 28.9 14.3 41.2 10.4 10.1 23.6 13.8 37.8 13.8 14.9-0.43 26.4-7.59 37.2-17.4-3.3 7.91-11.8 13.6-19.4 17-14.6 5.58-30.1 6.22-44.6 0-14.5-6.98-24-18-29.4-33.1-3.85-13.9-2.78-29.2 4.02-41.9 1.69-2.78 3.49-5.42 5.42-8.04 0.8-1.1 0.8-1.1 1.62-2.21 17-21.2 49.6-23.4 71.4-8.79z" fill="#000100"/>
<path transform="translate(705 556)" d="m0 0c4.33 4.52 8.38 9.39 10.8 15.2l-1 3c-0.38-0.65-0.75-1.3-1.14-1.98-8.08-13.8-18.2-22.2-33.8-26.6-13.3-2.92-27.3-0.08-38.9 6.73-10.9 7.49-18.6 18.7-21.2 31.8-2.27 13.6 0.25 26.7 7.53 38.5 7.74 10.7 18.6 17.7 31.5 20.5 16.4 1.33 30-0.2 43-11 2.43-2.25 4.76-4.56 7-7 0 3 0 3-1.91 5.3-11.4 11.4-23.7 17.6-40.2 18-14.5-0.2-27.3-6.03-37.7-16-11-11.6-15.7-24.6-15.6-40.5 0.45-13.9 6.17-26.5 15.7-36.6 21.7-20.4 54.7-19.7 76 0.62z" fill="#000100"/>
<path transform="translate(1225 370)" d="m0 0c5.98 5.06 10.9 10.9 14.3 18l-1 2c-0.49-0.72-0.97-1.43-1.47-2.16-8.52-12.2-18.1-19.7-32.5-23.8-15.6-2.34-28.9 0.23-41.8 9.26-9.99 7.92-17.4 20.2-19 32.9-0.76 14.7 2.48 28.3 11.9 39.8 11.8 11.7 24.1 16.4 40.5 16.4 12.4-0.33 24-4.85 32.9-13.7 1.94-2.18 3.8-4.4 5.65-6.65 0.98-1.02 1.98-2.02 3-3-2.45 8.7-11.2 16.2-18.8 20.6-9.15 4.8-17.4 6.75-27.6 6.68-0.84-0.01-1.67-0.01-2.53-0.02-6.11-0.12-11.4-0.72-17-3.29-0.89-0.41-1.78-0.81-2.69-1.22-14.4-7.19-23.5-18.2-28.6-33.4-4.46-14.8-1.83-29.7 5.15-43.3 7.81-13.4 19.4-20.3 33.8-25.4 16.2-3.46 32.8 0.63 46 10.3z" fill="#000100"/>
<path transform="translate(405 758)" d="m0 0c0.76-0.01 1.52-0.02 2.3-0.02 14 0.04 26.6 6.34 36.6 15.9 3.18 3.51 5.76 7.28 8.13 11.4l-1 2c-0.4-0.56-0.8-1.11-1.21-1.69-9.03-12.1-20-20.7-35.3-23.1-13.7-1.38-27 1.27-38.1 9.76-9.03 7.74-17.5 18.8-18.5 31.1-0.48 17.4 1.63 30.8 13.8 44 10.3 9.83 22.4 13.9 36.4 14.2 15.9-0.42 26.6-6.59 37.9-17.4 0 3 0 3-1.21 4.61-11.2 11.1-24.2 16.8-40 17-15.1-0.25-27.7-6.08-38.7-16.3-12-12.9-14.8-28.2-14.2-45.1 0.28-4.37 1.39-8.13 3.13-12.1 0.34-0.81 0.68-1.63 1.03-2.47 6.95-15.2 17.8-23.4 33-29.5 5.46-1.89 10.2-2.31 15.9-2.25z" fill="#000100"/>
<path transform="translate(1127,459)" d="m0 0c0 3.89-1.23 5.25-3.38 8.5-0.39 0.61-0.79 1.21-1.2 1.84-1.46 2.22-2.94 4.44-4.42 6.66-0.57 0.85-1.14 1.71-1.73 2.59-2.75 4.14-5.51 8.27-8.27 12.4-5.1 7.63-10.2 15.3-15.2 23-0.63 0.96-1.26 1.92-1.91 2.91l-7.62 11.6c-7.03 10.7-14.2 21.4-21.6 31.8-2.68 3.75-5.29 7.53-7.89 11.3-0.49 0.72-0.98 1.43-1.48 2.16-0.4 0.59-0.8 1.17-1.21 1.77-3.74 5.46-7.53 10.9-11.3 16.3-0.66 0.95-1.32 1.9-2 2.88-11.9 17.1-11.9 17.1-17.3 24.6-4.24 5.9-8.41 11.8-12.6 17.8-4.89 6.99-9.81 14-14.9 20.8 0-3.33 0.49-4.13 2.24-6.85 0.48-0.76 0.97-1.52 1.47-2.3 0.53-0.82 1.06-1.63 1.6-2.47 0.55-0.86 1.1-1.71 1.66-2.59 1.67-2.6 3.35-5.2 5.03-7.79 0.89-1.39 1.79-2.77 2.68-4.16 1.3-2 2.59-4 3.89-6 2.78-4.27 5.53-8.56 8.25-12.9 6.25-9.85 12.5-19.6 19.3-29.1 5.1-7.11 9.9-14.4 14.7-21.7 7.33-11.1 14.8-22 22.5-32.8 1.73-2.46 3.45-4.92 5.17-7.38 7.19-10.3 14.5-20.6 21.9-30.7 1.68-2.31 3.35-4.62 5.02-6.94 6.11-8.5 12.3-17 18.6-25.3z" fill="#000100"/>
<path transform="translate(599,630)" d="m0 0c0.99 0.5 0.99 0.5 2 1-5.84 5.36-11.8 10.5-18 15.5-3.57 2.95-7.06 5.98-10.6 9.02-5.18 4.51-10.4 8.93-15.8 13.3-3.11 2.54-6.18 5.14-9.24 7.74-5.78 4.91-11.6 9.72-17.5 14.5-1.85 1.52-3.71 3.04-5.56 4.56-4.28 3.51-8.6 6.97-12.9 10.4-2.61 2.09-5.19 4.21-7.77 6.33-4.68 3.84-9.43 7.59-14.2 11.3-4.59 3.59-9.11 7.25-13.6 10.9-5.06 4.12-10.1 8.23-15.2 12.2-1.54 1.22-1.54 1.22-3.12 2.46-2.57 1.73-2.57 1.73-5.57 1.73 3.79-4.02 7.75-7.67 12.1-11.1 4.5-3.62 8.74-7.42 12.9-11.4 4.9-4.61 9.91-8.99 15.2-13.2 3.29-2.67 6.51-5.41 9.72-8.18 1.19-1.02 2.38-2.04 3.57-3.07 0.88-0.76 0.88-0.76 1.78-1.53 7.24-6.22 14.5-12.4 22-18.3 2.84-2.26 5.65-4.55 8.47-6.84 20-16.3 40.6-31.9 61.3-47.4z" fill="#000100"/>
<path transform="translate(731,621)" d="m0 0c4.58 0.6 8.4 1.82 12.6 3.63 0.96 0.41 0.96 0.41 1.93 0.82 2.08 0.88 4.16 1.78 6.24 2.67 1.48 0.64 2.95 1.27 4.42 1.9 25.6 11 50.8 22.7 75.8 35 1.06 0.52 2.13 1.04 3.23 1.58 2.99 1.47 5.97 2.94 8.96 4.42 1.28 0.63 1.28 0.63 2.59 1.27 5.92 2.96 11.6 6.25 17.2 9.73-4.43 1.48-7.45-0.66-11.5-2.5-1.29-0.57-1.29-0.57-2.6-1.15-2.83-1.25-5.64-2.52-8.46-3.79-1.97-0.87-3.93-1.75-5.89-2.63-35.2-15.8-70.1-32.5-105-49.9v-1z" fill="#000100"/>
<path transform="translate(450,838)" d="m0 0 1 2-4 4c1.88-4.88 1.88-4.88 3-6z" fill="#000100"/>
<path transform="translate(974,733)" d="m0 0 1 2-4 4c1.88-4.88 1.88-4.88 3-6z" fill="#000100"/>
<path transform="translate(453,833)" d="m0 0 1 2-3 3 2-5z" fill="#000100"/>
<path transform="translate(976,729)" d="m0 0 1 3c-0.99 0.5-0.99 0.5-2 1l1-4z" fill="#000100"/>
<path transform="translate(864,683)" d="m0 0 4 1c-0.99 0.5-0.99 0.5-2 1l-2-2z" fill="#000100"/>
<path transform="translate(448,754)" d="m0 0 2 1h-3l1-1z" fill="#000100"/>
<path transform="translate(604,626)" d="m0 0 2 1h-3l1-1z" fill="#000100"/>
<path transform="translate(711,622)" d="m0 0v3z" fill="#000100"/>
<path transform="translate(713,619)" d="m0 0v3z" fill="#000100"/>
<path transform="translate(1129,456)" d="m0 0v3z" fill="#000100"/>
<path transform="translate(1132,452)" d="m0 0v3z" fill="#000100"/>
<path transform="translate(1238,436)" d="m0 0v3z" fill="#000100"/>
<path transform="translate(729,620)" d="m0 0 2 1z" fill="#000100"/>
</svg>
