<svg version="1.1" viewBox="0 250 1600 1600" width="1280" height="1280" xmlns="http://www.w3.org/2000/svg">
    <path transform="translate(825 561)"
        d="m0 0c2.12 0.44 4.24 0.82 6.37 1.19 11.3 2.02 11.3 2.02 13.7 5.23v1c-6.15-0.43-12-1.37-17.9-2.86-39.4-9.75-81.2 5.17-115 25.6-7.57 4.73-14.9 9.85-22 15.3 4.54 1.05 7.13 0.96 11.4-0.88 1.01-0.42 2.02-0.84 3.07-1.28 1.06-0.46 2.13-0.92 3.23-1.4 24.4-10.1 50.8-18.9 77.4-18.5 4.09 0.06 8.07-0.09 12.1-0.47 46-3.81 91.6 8.04 134 25.2 0.65 0.26 1.3 0.53 1.97 0.8 17.2 7 31.7 14.8 45.5 27.4 2.3 1.99 4.67 3.83 7.1 5.64 32.6 24.4 46 58.8 52 97.9 5.26 39.6-5.55 80.8-22.7 117-0.33 0.71-0.67 1.42-1.02 2.16-7.02 14.5-15.9 28-27 39.8-2.04 2.12-2.04 2.12-4.06 4.84-0.62 0.74-1.24 1.47-1.88 2.23h-2v2c-1.29 1.34-1.29 1.34-3.18 2.94-0.73 0.62-1.47 1.24-2.22 1.88-0.86 0.72-1.71 1.44-2.6 2.18-0.97 0.86-1.95 1.71-2.96 2.59-12.8 11.1-26.9 20-41.3 28.8-2.57 1.58-5.13 3.19-7.68 4.8-26.4 16.5-55.1 26-85.6 31.5-7.33 1.33-14.6 2.93-21.8 4.74-14.9 3.59-29.9 4.12-45.2 4.14-0.99 0.01-1.98 0.01-3.01 0.01-27.4-0.01-55.5-3.22-81.4-12.5-1.22-0.43-2.44-0.87-3.7-1.32-3.81-1.47-7.55-3.05-11.3-4.68-1.4-0.59-1.4-0.59-2.83-1.21-23.7-10.1-44.4-20.8-63.2-38.8-0.95-0.9-1.9-1.8-2.88-2.73-23.1-22.2-37.4-48.3-43-79.8-0.39-2.18-0.79-4.36-1.2-6.53-10-54.9 19.2-124 49.7-169 4.84-6.94 9.97-13.6 15.4-20.2 0.81-0.98 1.61-1.97 2.43-2.98 6.37-7.73 13.2-14.9 20.3-22l2.69-2.69c5.03-4.99 10.2-9.81 15.6-14.4 0.61-0.51 1.22-1.03 1.85-1.56 14.8-12.4 30-23.5 47.2-32.4 1.15-0.6 2.29-1.2 3.46-1.82 17-8.47 35.9-13.8 54.5-17.2 1.24-0.22 2.48-0.45 3.75-0.68 17.9-2.71 36.5-2.5 54.2 1.26zm-165 116c-3.7 4.17-7.08 8.56-10.4 13-2.06 2.63-4.15 4.95-6.54 7.26-1.39 1.36-1.39 1.36-2.82 2.75v2h-2c-1.73 1.76-1.73 1.76-3.5 3.94-3.29 3.96-3.29 3.96-5.5 5.06v2c-2.97 0.5-2.97 0.5-6 1-0.09-5.16-0.06-9.93 1-15 0.09-2.67 0.05-5.32 0-8h-4c-3.24 3.92-5.57 8.54-8 13-0.63 1.15-1.26 2.31-1.91 3.49-11.7 22.6-18.4 48.7-23.1 73.5-0.17 0.9-0.35 1.79-0.53 2.71-6.4 33.3-2.18 66.9 16.6 95.5 8.79 12.2 19.2 21.8 31.9 29.8 0.62 0.4 1.24 0.79 1.88 1.2 44.9 28.4 94.8 37.1 147 30.8 0.76-0.09 1.51-0.18 2.29-0.27 28.4-3.46 54.9-9.7 81.7-19.7 0.76-0.28 1.52-0.56 2.3-0.85 16.4-6.16 32.9-12.6 47.7-22.2 0.62-0.39 1.24-0.79 1.88-1.2 8.66-5.67 16.3-12.3 23.7-19.5 1.19-1.15 2.41-2.29 3.62-3.42 28.3-26.9 44.8-69.5 46.1-108 0.07-3.54 0.09-7.08 0.08-10.6v-2.25c-0.13-28.8-9.95-51.4-29.7-72.4-31.3-30.3-74.3-40.9-115-50.1-1.96-0.44-3.93-0.89-5.89-1.34-60.9-13.8-139 1.1-183 47.8z"
        fill="#112b3c" />
    <path transform="translate(1273 502)"
        d="m0 0c0.88 0.01 1.75 0.01 2.65 0.02 13.3 0.16 13.3 0.16 16.4 3.23 0.31 3.13 0.33 4.25-1 7-11.8 11.8-29.4 17-44.8 22.4-28.9 10.3-57 23.1-83.8 37.9-15.5 8.57-31.2 16.7-47.3 24.3-21.7 10.2-42.5 22-61.8 36.2-5.21 3.84-8.67 5.67-15.2 5.49-2.19-0.37-2.19-0.37-5.13-2.37-2.95-4.29-4.49-7.94-3.75-13.2 1.78-6.33 5.49-10.9 9.69-15.8 0.43-0.57 0.86-1.14 1.3-1.73 5.07-6.58 12.1-11.3 18.7-16.3 0.64-0.48 1.28-0.96 1.93-1.46 28.7-21.5 62.2-36.4 95.2-50.1 5.29-2.2 10.5-4.51 15.7-6.87 19-8.52 38.3-15.2 58.2-20.9 1.1-0.32 1.1-0.32 2.22-0.65 13.4-3.84 26.6-7.57 40.7-7.23z"
        fill="#112b3c" />
    <path transform="translate(331 740)"
        d="m0 0c18.4 4.13 36.7 6.43 55.4 8.03 41.6 3.53 41.6 3.53 57.3 7.07 0.96 0.22 1.93 0.43 2.92 0.65 51 11.5 51 11.5 64.1 26.7 1.81 3.11 1.66 5.23 0.98 8.68-1.45 3.86-3.21 6.37-6.44 8.94-9.33 2.78-20.1 0.93-29.7-0.12-1.21-0.14-2.41-0.27-3.66-0.4-16.6-1.93-33-5.3-49.4-8.75-14-2.96-28-5.34-42.2-7.08-13.9-1.69-27.6-3.56-41.2-6.59-1.07-0.23-2.14-0.47-3.24-0.71-15.1-3.51-26.9-7.24-35.7-20.7-2.62-4.64-4.5-9.05-4.38-14.4 4.66-10.6 26.3-3.25 35.2-1.23z"
        fill="#112b3c" />
    <path transform="translate(800,1066)"
        d="m0 0c10.5 5.34 15.4 15.3 19 26 4.06 13.9 6.14 28 7.62 42.4 0.41 3.81 0.83 7.62 1.24 11.4 0.1 0.91 0.2 1.82 0.3 2.76 0.59 5.46 1.35 10.9 2.25 16.3 4.4 27 2.92 57-0.41 84.1-0.15 1.37-0.29 2.74-0.44 4.11-1.45 12.1-4.93 27.6-14.8 35.7-0.59 0.38-1.17 0.77-1.78 1.16-3.73-1.46-5.12-3.27-7.12-6.69-0.5-0.83-1-1.66-1.51-2.51-3.21-6.56-3.71-12.6-3.9-19.8-0.03-0.99-0.06-1.97-0.1-2.99-0.07-2.14-0.14-4.28-0.2-6.43-0.18-5.83-0.4-11.7-0.61-17.5-0.04-1.22-0.09-2.44-0.13-3.7-1.24-34.1-2.5-68.4-6.43-102-0.09-0.75-0.17-1.51-0.26-2.29-0.57-4.97-1.17-9.93-1.81-14.9-0.2-1.58-0.39-3.17-0.59-4.76-1.16-9.46-3-17.9-6.53-26.8-0.97-3.89-0.51-5.68 1.19-9.26 5.05-4.68 8.29-5.59 15-4z"
        fill="#112b3c" />
    <path transform="translate(1022 343)"
        d="m0 0c1.83 1.39 1.83 1.39 2.83 4.39-3.4 6.43-9.84 9.44-16.1 12.6-19.7 10.3-38.8 22.8-54.3 38.8-1.68 1.68-3.44 3.22-5.26 4.75-4.06 3.43-7.73 7.04-11.1 11.2-0.76 0.89-1.53 1.77-2.31 2.69h-2c-0.24 0.56-0.47 1.12-0.71 1.7-1.61 2.86-3.61 4.77-5.98 7.05-4.34 4.25-8.38 8.62-12.3 13.2-0.8 0.91-1.6 1.81-2.42 2.75-15 17.2-29.8 36-35.1 58.6-1.47 6.14-3.1 10.1-8.5 13.7-4.07 0.63-5.67 0.21-9.19-2-5.12-4.89-5.94-10.1-6.21-17-0.27-16.5 6.44-29.8 15.2-43.4 0.52-0.82 1.05-1.65 1.59-2.49 4.25-6.63 8.77-13 13.7-19.1 1-1.27 1-1.27 2.01-2.57 1.98-2.49 3.98-4.96 5.99-7.43 0.64-0.82 1.28-1.63 1.94-2.47 7.15-9 15.1-17.3 23.1-25.5 0.5-0.54 1-1.07 1.52-1.62 1.12-1.17 2.29-2.28 3.48-3.38h2v-2c2.41-2.59 5.28-4.75 8-7 0.56-0.48 1.13-0.95 1.71-1.44 18.9-15.9 39.2-29.8 63.3-36.6 0.67-0.2 1.34-0.4 2.03-0.6 8.35-1.71 15.7-0.8 23.1 3.21z"
        fill="#112b3c" />
    <path transform="translate(1092,918)"
        d="m0 0c1.03 0.21 2.06 0.43 3.12 0.65 38.2 8.09 89.9 25.8 113 59.8 4.2 6.98 7.06 14.3 6.12 22.6-0.84 2.46-1.85 4.66-3 7-10.9 1.18-20-6.8-28.8-12.3-22.6-14.2-46.4-24.9-71.2-34.7-1-0.39-1.99-0.79-3.02-1.19-14.9-5.87-30-10.8-45.3-15.4-1.89-0.58-1.89-0.58-3.81-1.17-2.75-0.84-5.5-1.67-8.25-2.49-1.43-0.44-2.86-0.87-4.3-1.31-0.66-0.19-1.31-0.38-1.99-0.58-7.06-2.16-13.3-5.47-17.4-11.8-0.09-4.25 0.67-5.66 3.62-8.75 14.1-11.7 45.2-3.69 61.4-0.25z"
        fill="#112b3c" />
    <path transform="translate(575,1018)"
        d="m0 0c2.38 1.62 2.38 1.62 4 4 0.46 4.63-0.17 6.99-2.94 10.7-0.96 1.29-0.96 1.29-1.95 2.62-3.63 4.63-7.32 9.19-11.1 13.7-0.43 0.52-0.87 1.04-1.32 1.58-10.6 12.6-21.7 24.8-33.6 36.3-1.82 1.88-3.52 3.8-5.23 5.78-3.74 4.29-7.67 8.35-11.7 12.4-1.08 1.08-1.08 1.08-2.18 2.19-1.5 1.5-3 3.01-4.51 4.51-2.31 2.32-4.61 4.64-6.92 6.96-1.46 1.47-2.93 2.94-4.39 4.4-0.69 0.7-1.38 1.4-2.09 2.11-0.64 0.64-1.28 1.27-1.93 1.93-0.57 0.56-1.13 1.12-1.7 1.7-1.45 1.2-1.45 1.2-3.45 1.2v2c-1.29 1.3-1.29 1.3-3.19 2.88-3.86 3.28-7.6 6.67-11.3 10.1-9.69 8.96-9.69 8.96-14.5 13-0.5 0.42-0.99 0.83-1.5 1.26-18.7 15.6-49.8 41.3-75.5 41-2.95-0.32-4.72-1.35-7-3.22-1.71-2.34-2.01-3.54-1.94-6.44 2.55-6.97 10.5-10.8 16.4-14.8 1.99-1.34 3.99-2.69 5.98-4.04 0.96-0.65 1.92-1.3 2.92-1.97 25.8-17.4 49.8-37.5 72.7-58.6 0.52-0.48 1.04-0.96 1.57-1.45 1.46-1.34 2.92-2.68 4.38-4.03 2.27-2.08 4.58-4.11 6.91-6.13 4.21-3.67 8.27-7.48 12.3-11.3 4.4-4.17 8.82-8.33 13.3-12.4 8.01-7.33 15.7-15 23.3-22.7 14.5-14.7 14.5-14.7 20.5-19.8 1.67-1.42 3.27-2.9 4.87-4.4 0.48-0.46 0.97-0.92 1.48-1.4 0.97-0.92 1.95-1.85 2.92-2.79 4.82-4.51 9.6-7.87 16.4-6.83z"
        fill="#112b3c" />
    <path transform="translate(1126 825)"
        d="m0 0c1.26-0.01 2.51-0.01 3.8-0.02 4.06-0.02 8.11-0.03 12.2-0.03h2.09c20.8-0.01 41.3 0.2 61.8 3.25 1.18 0.17 2.36 0.35 3.58 0.52 17.2 2.59 33.8 6.63 50.4 11.5 1.16 0.33 2.31 0.66 3.5 1 3.51 1 7.01 2.03 10.5 3.07 1.59 0.45 1.59 0.45 3.2 0.92 9.54 2.89 19.5 7.11 24.8 16 1.54 3.88 2.36 6.93 1 11-8.17 3.72-17.5 1.89-25.8-0.69-12.1-3.73-24.3-5.2-36.8-6.68-2.39-0.3-4.78-0.59-7.17-0.88-27.9-3.41-55.8-6.4-83.8-9.38-7.52-0.8-15-1.62-22.6-2.43-2.14-0.24-4.27-0.47-6.41-0.7-2.52-0.27-5.05-0.54-7.57-0.82-2.9-0.31-5.79-0.59-8.69-0.86-0.82-0.08-1.63-0.16-2.46-0.24-1.57-0.15-3.14-0.3-4.71-0.43-5.47-0.55-8.93-1.91-12.9-5.64-1.13-2.25-1.13-2.25-1.32-5.68 1.45-4.33 2.79-5.38 6.68-7.5 11.7-4.94 24.2-5.22 36.6-5.27z"
        fill="#112b3c" />
    <path transform="translate(430,475)"
        d="m0 0c10.8 4.01 16.6 11.5 21.3 21.7 0.74 1.68 1.48 3.35 2.22 5.02 7.34 16 17.2 30.6 29 43.6 1.17 1.29 2.33 2.59 3.48 3.9 5.51 6.19 11.2 12.1 17.1 18l2.57 2.57c4.38 4.38 8.84 8.58 13.5 12.6 2.92 2.57 5.62 5.34 8.34 8.12 3.5 3.55 7 7.03 10.8 10.2 7.26 6.21 14.2 13.3 16.2 22.9-0.88 3.62-2.6 5.13-5.56 7.31-4.28-0.3-7.3-1.46-10.9-3.66-1.36-0.81-1.36-0.81-2.75-1.64-0.95-0.58-1.9-1.16-2.87-1.76-0.99-0.6-1.97-1.19-2.99-1.8-2.82-1.7-5.64-3.42-8.45-5.14-1.24-0.75-2.49-1.5-3.73-2.25-3.11-1.89-6.19-3.81-9.27-5.75-0.65-0.4-1.29-0.81-1.96-1.22-14.9-9.31-28.4-19.6-41-31.8-0.5-0.47-0.99-0.94-1.51-1.42-20.3-19.3-39.4-46.6-41.5-75.4 0.12-9.07 3.75-16.3 8.03-24.1z"
        fill="#112b3c" />
    <path transform="translate(1170,434)"
        d="m0 0c-0.32 3-0.58 4.58-2.76 6.74-12.4 8.26-25.4 14.3-39.1 20-39.6 16.6-78 35.9-114 59.1-6.09 3.92-12.2 7.72-18.5 11.4-1.23 0.74-1.23 0.74-2.49 1.49-3.78 2.26-7.57 4.49-11.4 6.66-8.46 4.84-14.5 9.71-19.9 17.9-1.75 2.62-1.75 2.62-4.75 4.62-4.83 0.54-6.9 0.71-11-1.94-2.73-4.18-2.98-7.2-2-12.1 9.15-23.2 40-37.7 60-50 0.82-0.5 1.64-1.01 2.48-1.52 11.7-7.13 23.5-14 35.5-20.5 0.98-0.53 1.97-1.06 2.98-1.6 83.7-44.7 83.7-44.7 125-40.4z"
        fill="#112b3c" />
    <path transform="translate(734,310)"
        d="m0 0c0 4.03-1.93 6.36-4.06 9.62-0.93 1.46-1.85 2.91-2.78 4.36-0.76 1.2-0.76 1.2-1.53 2.43-26.3 41.4-26.3 41.4-44.6 86.6-0.3 0.98-0.3 0.98-0.6 1.99-5.59 19.2-6.63 39.8-6.84 59.6-0.03 1.77-0.03 1.77-0.06 3.57 0.03 15.3 7.11 26.6 16.2 38.5 1.53 2.7 1.66 4.26 1.32 7.32-1 1.81-1 1.81-3 3-6.39 0.76-10.7-0.39-16-4-16.4-12.9-23.3-29.7-26-50-3.54-48.2 20.3-101 50-138 0.47-0.6 0.95-1.21 1.43-1.83 8.68-11 21.2-24.1 36.6-23.2z"
        fill="#112b3c" />
    <path transform="translate(957 1027)"
        d="m0 0c19.6 12.2 34.2 29.2 46.8 48.1 0.59 0.86 1.17 1.72 1.78 2.61 8.48 13.2 13.8 28.4 18.7 43.2 0.22 0.65 0.44 1.3 0.67 1.98 4.92 14.7 5.81 27 2.83 42.2-3 1-3 1-4.69 0.21-11.6-8.64-18.3-20.1-25-32.7-15.5-29.3-31.9-55.9-55.2-79.7-0.6-0.63-1.2-1.25-1.81-1.9-5.71-5.73-11.4-9.06-19.6-9.92-4.67-0.67-7.58-1.33-10.8-5-2.52-3.48-2.44-6.8-2-11 2.16-3.79 4.72-5.96 8.84-7.49 14.1-3.28 27.5 2.29 39.4 9.37z"
        fill="#112b3c" />
    <path transform="translate(534,941)"
        d="m0 0c2.91 1.99 3.8 3 4.5 6.44-0.7 3.59-1.92 4.9-4.5 7.56-3.29 2.14-6.75 3.91-10.2 5.69-1.54 0.78-1.54 0.78-3.11 1.59-33.4 16.8-69.6 27.5-106 36.7-0.78 0.2-1.57 0.4-2.38 0.61-18.7 4.79-37.5 8.86-56.7 11.6-0.76 0.11-1.52 0.22-2.3 0.34-12.5 1.83-25.6 2.69-36.6-4.53-1.2-2.13-1.2-2.13-2-4 10.6-11.7 32-13.1 47-15.9 25.3-4.71 49.8-11.2 74.3-18.8 0.85-0.26 1.69-0.53 2.57-0.8 0.86-0.27 1.73-0.55 2.62-0.83 7.33-2.28 14.7-4.49 22-6.68 1.16-0.35 2.32-0.7 3.52-1.05 9.34-2.8 9.34-2.8 13.9-4.14 3.24-0.96 6.47-1.93 9.71-2.9 1.04-0.31 2.07-0.62 3.14-0.94 5.2-1.59 10.3-3.29 15.4-5.22 0.99-0.37 1.98-0.75 3-1.14 1.85-0.71 3.69-1.44 5.52-2.2 5.68-2.21 10.4-2.99 16.3-1.36z"
        fill="#112b3c" />
    <path transform="translate(684 1055)"
        d="m0 0c3.25 2.22 4.57 4.87 5.38 8.62 0.13 5.26-0.18 10.1-1.04 15.3-0.16 1.02-0.16 1.02-0.33 2.05-0.37 2.22-0.75 4.43-1.13 6.63-0.14 0.77-0.27 1.54-0.4 2.32-5.86 33.7-15.1 65.8-30.1 96.7-0.38 0.79-0.76 1.57-1.15 2.38-10.6 22-22.7 42.9-41.8 58.6-0.86 0.71-0.86 0.71-1.73 1.42-2.59 1.94-3.88 2.62-7.15 2.34-1.05-0.38-1.05-0.38-2.12-0.76 0.61-4.15 2.01-7.34 3.95-11 0.45-0.87 0.45-0.87 0.91-1.75 0.97-1.88 1.96-3.76 2.95-5.63 0.68-1.32 1.37-2.63 2.05-3.95 3.53-6.77 7.14-13.5 10.9-20.1 17.2-30.8 28.4-63.5 37.3-97.5 1.64-6.27 3.3-12.6 4.96-18.8 0.7-2.67 1.4-5.34 2.09-8.02 6.35-24.2 6.35-24.2 11.4-28 2.51-1.17 2.51-1.17 5.13-0.79z"
        fill="#112b3c" />
    <path transform="translate(1202 693)"
        d="m0 0c21.7-0.59 43.3 2 64.8 4.5 1.37 0.15 1.37 0.15 2.76 0.31 9.99 1.15 19.7 2.4 29.4 5.25-0.56 1.81-0.56 1.81-2 4-11.8 5.74-24.3 6.44-37.2 6.22-1.43-0.01-2.86-0.02-4.29-0.02-3.73-0.03-7.47-0.06-11.2-0.11-6.62-0.08-13.2-0.14-19.9-0.18-0.72 0-1.44-0.01-2.19-0.01-42.1-0.18-96.2 0.78-133 22.8-2.95 1.7-4.28 2.45-7.66 1.61-3.2-1.89-4.76-3.14-6.07-6.67-0.17-3.66 0.53-4.79 2.88-7.63 27.2-24.8 89.3-29 124-30.1z"
        fill="#112b3c" />
    <path transform="translate(841,794)"
        d="m0 0c-8.42 19.9-26.9 30.3-46 38.3-25.6 10.1-51.2 17.3-77.7 6.23-10.2-4.76-20.7-11.7-25.2-22.5-0.75-2.83-0.95-5.03-1-8l2-2c4.75 0.23 8.3 2.83 12.2 5.31 15.8 9.78 30.8 12.9 49.2 8.85 18.6-4.51 36.4-10.7 54-18 3.76-1.57 7.54-3.11 11.3-4.63 1.63-0.67 1.63-0.67 3.29-1.34 6.7-2.51 11.1-3.38 18.1-2.16z"
        fill="#112b3c" />
    <path transform="translate(853,692)"
        d="m0 0c2.75 1.8 4.53 3.05 6 6 1.05 10.3-5.27 19.2-11.5 26.9-7.1 7.73-16.3 12.8-26.7 14-5.83 0.19-10-1.05-14.6-4.72-3.98-3.78-5.18-6.94-5.5-12.4 0.27-8.89 4.27-15.6 10.3-21.9 3.94-3.64 7.2-5.66 12.6-6.42 4.06 0.59 6.14 2.15 9.44 4.5 4.41 0 4.99-0.45 8.31-3 4.07-2.82 6.64-3.97 11.7-3z"
        fill="#112b3c" />
    <path transform="translate(722,686)"
        d="m0 0c2.37 1.64 4.59 3.39 6.82 5.22 1.81 1.48 3.6 2.78 5.56 4.03 5.2 3.47 5.2 3.47 6.56 7.63 0.89 8.97-3.81 18-9.08 25-5.49 6.38-10.2 9.71-18.7 10.5-4.64-0.15-8.37-1.66-12.1-4.38-5.09-6.4-5.84-12-5-20 2.46-9.7 8.21-22.5 17.1-27.9 3.72-1.47 5.1-1.48 8.89-0.14zm-3 13c-1.86 3.13-2.2 5.37-2 9 2-0.58 2-0.58 4-2 1.29-3.04 1.29-3.04 2-6l-4-1z"
        fill="#112b3c" />
</svg>