<svg version="1.1" viewBox="300 300 1600 1600" width="1280" height="1280" xmlns="http://www.w3.org/2000/svg">
    <path transform="translate(597 296)"
        d="m0 0h5.31c4.84-0.01 9.69-0.01 14.5-0 5.23-0 10.5-0 15.7-0.01h30.7 25 3.6 7.24c22.6 0 45.2 0 67.9 0.01h58.1c22.5-0.01 45-0.01 67.6-0.01h7.23 3.59 24.9 30.4c5.17 0.01 10.3 0.01 15.5 0 35.6-0.02 35.6-0.02 50.3 0.51 0.93 0.03 1.86 0.06 2.81 0.09 13 0.59 22.8 6.8 31.6 16.2 17 20.6 19.6 46.3 19.4 72.1-0.01 1.28-0.01 2.56-0.01 3.88-0.02 3.12-0.03 6.24-0.05 9.37 1.3-0.04 2.61-0.07 3.95-0.11 19.3-0.37 35.7 3.25 50.1 17 16.7 16.6 19.4 35.5 19.5 58.1v3.65c0.01 3.69 0.06 7.38 0.12 11.1 0.01 2.37 0.01 4.74 0.02 7.11 0.02 1.09 0.04 2.18 0.06 3.3-0.05 6.4-0.94 11-4.88 16.1-5.6 5.31-13.2 5.21-20.5 5.07-0.88 0-1.75-0.01-2.65-0.01-2.77-0.02-5.53-0.06-8.29-0.1-1.88-0.01-3.77-0.02-5.65-0.04-4.6-0.03-9.19-0.08-13.8-0.14-0.05 0.65-0.09 1.3-0.14 1.97-1.41 20.4-3 40.7-4.63 61-0.29 3.6-0.58 7.2-0.86 10.8-0.69 8.6-1.38 17.2-2.07 25.8-0.61 7.64-1.22 15.3-1.83 22.9-2.06 25.8-4.14 51.7-6.24 77.6-0.23 2.92-0.47 5.84-0.71 8.75-5.09 62.8-10.7 126-16.5 188-1.26 13.6-2.51 27.1-3.75 40.7-0.18 1.88-0.18 1.88-0.35 3.79-0.7 7.58-0.7 7.58-1.4 15.2-0.7 7.6-1.4 15.2-2.1 22.8-3 32.5-5.96 64.9-8.9 97.4l-1.8 19.8c-0.19 2.15-0.39 4.29-0.58 6.44-0.29 3.17-0.57 6.33-0.86 9.5-1.1 12.2-2.2 24.3-3.3 36.5-0.67 7.52-1.35 15-2.04 22.6-0.39 4.28-0.78 8.57-1.16 12.8-2.61 29.3-2.61 29.3-4.36 40.6-0.11 0.71-0.22 1.42-0.33 2.15-2.99 17.7-13.4 33.8-27.7 44.6-14.6 9.86-29.6 12.4-46.9 12.3-1.44 0-2.87 0-4.31 0.01-3.91 0.01-7.83 0.01-11.8 0-4.23 0-8.46 0.01-12.7 0.02-8.28 0.01-16.6 0.01-24.8 0.01h-20.2c-1.44 0-1.44 0-2.91 0.01h-5.85c-18.3 0.01-36.6 0.01-54.8 0-16.7 0-33.4 0.01-50.1 0.03-17.2 0.02-34.4 0.02-51.5 0.02-9.63 0-19.3 0-28.9 0.02-8.2 0.01-16.4 0.01-24.6 0-4.18-0.01-8.36-0.01-12.5 0-3.83 0.01-7.67 0.01-11.5 0-2.03-0.01-4.05 0-6.08 0.01-11.5-0.06-22.9-1.58-33.1-7.02-1.01-0.52-1.01-0.52-2.03-1.05-6.07-3.27-11-7.34-15.7-12.3-0.7-0.68-1.39-1.35-2.11-2.05-15.1-15.6-18.1-36-19.9-56.7-0.17-1.76-0.33-3.53-0.5-5.29-0.34-3.59-0.67-7.19-0.99-10.8-0.43-4.77-0.88-9.54-1.34-14.3-0.78-8.23-1.54-16.4-2.3-24.7-0.31-3.36-0.63-6.72-0.94-10.1-1.03-11.1-2.06-22.2-3.08-33.3-0.27-2.94-0.54-5.88-0.82-8.82-2.84-30.8-5.67-61.6-8.5-92.4-0.31-3.32-0.61-6.64-0.92-9.96-9.4-102-18.7-205-32.1-370-0.18-2.31-0.37-4.62-0.55-6.92-1.72-21.4-3.43-42.8-5.12-64.3-0.1-1.27-0.2-2.54-0.3-3.85-0.56-7.1-1.12-14.2-1.67-21.3-0.17-2.11-0.33-4.21-0.5-6.32-0.22-2.84-0.44-5.69-0.66-8.53-0.1-1.23-0.1-1.23-0.2-2.48-0.32-4.14-0.5-8.22-0.43-12.4-1.14 0.02-2.28 0.04-3.46 0.06-4.25 0.07-8.51 0.12-12.8 0.16-1.83 0.02-3.67 0.04-5.51 0.08-2.65 0.05-5.3 0.07-7.95 0.09-0.81 0.02-1.62 0.04-2.46 0.06-5.74 0-10-1.24-14.8-4.45-4.07-4.27-5.12-7.49-5.16-13.3-0.01-1.09-0.02-2.17-0.03-3.28-0.01-1.17-0.01-2.35-0.02-3.55 0-1.21-0.01-2.42-0.01-3.67-0.01-2.57-0.02-5.14-0.02-7.71-0.01-3.89-0.04-7.79-0.08-11.7 0-2.5-0.01-5-0.01-7.5-0.01-1.15-0.03-2.3-0.04-3.49 0.05-17.2 6.19-33.5 18.4-45.8 13.8-12.2 28-17.4 46.1-17.1 1.58 0.02 1.58 0.02 3.2 0.03 2.58 0.02 5.16 0.06 7.74 0.1-0.01-0.68-0.02-1.36-0.04-2.06-0.42-31.5 0.33-62.4 22.9-87 14.3-13.5 31.3-13.1 49.7-13.1zm-29 39.9c-12.3 16.6-11.9 41.5-10.5 61.2 1.74 1.74 4.03 1.12 6.35 1.13 1.17-0.01 1.17-0.01 2.36-0.01h2.49c2.79 0.01 5.58 0 8.37 0h6.01c5.54 0 11.1 0 16.6-0.01h17.9c10.3 0 20.7 0 31-0.01 10.8 0 21.7-0.01 32.5-0.01h2.04 10.3c24.2 0 48.5-0.01 72.8-0.02 23.6-0.01 47.1-0.01 70.7-0.02h2.2 21.9c14.8 0 29.7-0.01 44.6-0.01h2.07c45.6-0.01 91.3-0.03 137-0.04 3.81-18.4 2.07-43.1-7.45-59.5-2.97-4.24-6.02-6.91-10.6-9.5-2.73-0.38-5.04-0.54-7.76-0.5-1.14-0.01-1.14-0.01-2.31-0.02-2.57-0.01-5.14 0-7.71 0.02-1.85-0.01-3.71-0.01-5.57-0.02-5.11-0.02-10.2-0.01-15.3 0.01-5.51 0.01-11 0-16.5-0.01-10.8-0.02-21.6-0.01-32.4 0.01-12.6 0.01-25.1 0.01-37.7 0.01-23.1-0.01-46.2 0.01-69.2 0.03-21.1 0.03-42.2 0.03-63.2 0.02-5.39 0-10.8 0-16.2-0.01h-2.01c-17.6-0.01-35.2 0-52.8 0.01-2.53 0-5.05 0.01-7.57 0.01h-3.76-26.3c-10.7-0.01-21.3 0-32 0.02-5.45 0.01-10.9 0.01-16.3 0.01-4.98-0.01-9.96 0-15 0.01-1.8 0.01-3.61 0.01-5.41 0-2.45-0.01-4.9 0-7.35 0.02-0.7-0.01-1.41-0.02-2.14-0.02-6.35 0.07-10.1 2.37-14 7.21zm-78.4 104c-11 13.8-7.15 27.8-7.15 46.1h636c1.87-26.3 1.87-26.3-9.07-47.2-9.97-9.04-21.4-8.91-34.2-8.88-1.46 0-1.46 0-2.95-0.01h-9.75-7.08c-5.8-0.01-11.6-0.01-17.4-0.01-6.95 0-13.9 0-20.8-0.01-14.4-0.01-28.8-0.01-43.2-0.01-11.1 0-22.2 0-33.4-0.01h-9.61-2.41c-22.4-0.01-44.8-0.01-67.2-0.01h-2.56-12.8-2.57-5.16c-26.7 0-53.4-0.01-80.2-0.02-30-0.01-60.1-0.02-90.1-0.02h-9.61-2.39c-12.7 0-25.4-0.01-38-0.02-12.8-0.01-25.5-0.01-38.3 0h-20.7c-6.33-0.01-12.6-0.01-19 0-2.29 0-4.57 0-6.86-0.01-23.6-0.86-23.6-0.86-43.6 10.2zm44.8 79.1c1.88 26.3 3.79 52.6 5.93 79 0.26 3.32 0.53 6.63 0.79 9.95 0.26 3.23 0.52 6.46 0.79 9.69 0.12 1.52 0.24 3.04 0.36 4.56 0.17 2.09 0.34 4.18 0.51 6.27 0.09 1.18 0.19 2.35 0.29 3.57 0.27 2.45 0.7 4.63 1.33 7.01 21.2 1.03 42.5 1.14 63.7 1.13h14.6c9.5 0.01 19 0.01 28.5 0h23.3 3.37 6.79c21.2 0.01 42.4 0 63.6 0 18-0.01 36-0.01 54 0h63.1 6.8 3.38 23.1c51.6 0.02 103-0.22 155-1.13 1.09-9.65 2.18-19.3 2.96-29 0.12-1.43 0.12-1.43 0.24-2.88 0.25-3.07 0.49-6.13 0.74-9.2 0.18-2.16 0.35-4.32 0.53-6.48 0.37-4.49 0.73-8.98 1.1-13.5 0.46-5.76 0.93-11.5 1.4-17.3 0.36-4.45 0.73-8.9 1.09-13.3 0.17-2.12 0.34-4.25 0.52-6.37 0.24-2.95 0.48-5.91 0.71-8.86 0.08-0.87 0.15-1.75 0.22-2.65 0.07-0.8 0.13-1.6 0.2-2.43 0.05-0.7 0.11-1.39 0.17-2.11 0.12-1.99 0.12-3.98 0.12-5.97h-529zm13 153c0 7.67 0.1 15.1 0.73 22.7 0.08 1 0.16 2.01 0.24 3.04 0.26 3.34 0.53 6.67 0.8 10 0.19 2.4 0.38 4.81 0.58 7.21 0.52 6.53 1.05 13.1 1.58 19.6 0.28 3.44 0.56 6.88 0.83 10.3 4.88 60.2 10.3 120 15.9 181 0.89 9.58 1.77 19.2 2.65 28.7 0.09 1.03 0.09 1.03 0.19 2.07 0.31 3.45 0.63 6.89 0.94 10.3 0.63 6.78 1.25 13.6 1.87 20.4 0.06 0.66 0.12 1.32 0.19 2.01 0.89 9.75 1.79 19.5 2.69 29.3 1.96 21.3 3.92 42.6 5.85 63.9 0.15 1.62 0.29 3.24 0.44 4.87 0.52 5.78 1.04 11.6 1.56 17.3 0.33 3.63 0.65 7.27 0.98 10.9 0.09 1.02 0.18 2.03 0.28 3.08 0.08 0.94 0.16 1.87 0.25 2.83 0.07 0.78 0.14 1.57 0.21 2.38 0.35 3.19 0.82 6.36 1.28 9.53h422c1.59-7.65 1.59-7.65 2.61-15.3 0.09-0.92 0.18-1.84 0.27-2.79 0.08-0.98 0.17-1.96 0.26-2.97 0.1-1.07 0.2-2.13 0.3-3.23 0.33-3.56 0.65-7.12 0.97-10.7 0.23-2.56 0.47-5.12 0.7-7.68 0.58-6.25 1.14-12.5 1.71-18.7 0.67-7.35 1.34-14.7 2.01-22 1.21-13.2 2.41-26.4 3.61-39.6 1.15-12.6 2.3-25.3 3.46-37.9 0.07-0.77 0.14-1.54 0.21-2.33 0.28-3.1 0.57-6.2 0.85-9.29 10.8-116 10.8-116 20.6-232 0.36-4.6 0.73-9.21 1.1-13.8 0.3-3.69 0.59-7.38 0.88-11.1 0.14-1.71 0.28-3.41 0.41-5.12 0.19-2.32 0.37-4.65 0.55-6.97 0.11-1.3 0.21-2.6 0.32-3.94 0.26-5.04 0.22-10.1 0.22-15.1h-503zm44 494c-1.15 3.44-0.93 5.54-0.6 9.15 0.12 1.26 0.23 2.53 0.35 3.84 0.13 1.39 0.26 2.78 0.39 4.17 0.13 1.43 0.26 2.86 0.39 4.28 0.28 3 0.56 6.01 0.84 9 0.37 3.82 0.72 7.65 1.06 11.5 0.27 2.95 0.55 5.91 0.82 8.86 0.14 1.41 0.27 2.82 0.39 4.22 1.39 15.2 3.01 30.5 14.6 41.6 9.29 7.09 18.8 7.96 30.2 7.88 1.44 0 2.87 0.01 4.31 0.01 3.91 0.02 7.82 0.01 11.7 0 4.23-0.02 8.46 0 12.7 0.01 8.28 0.01 16.6 0 24.8-0.01 9.65-0.02 19.3-0.02 28.9-0.01 17.2 0 34.4-0.01 51.6-0.04 16.7-0.02 33.4-0.03 50.1-0.02 18.2 0.01 36.4 0.02 54.6 0h5.82 2.9c6.72-0.01 13.4-0.01 20.2 0 8.19 0 16.4 0 24.6-0.02 4.18-0.01 8.35-0.02 12.5-0.01 3.83 0.01 7.66 0 11.5-0.02 2.04-0.01 4.07 0 6.1 0.01 11.6-0.08 19.8-2.24 28.2-10.4 9.89-11.4 10.9-26 12.1-40.4 0.17-1.79 0.33-3.59 0.5-5.38 0.33-3.5 0.64-7.01 0.95-10.5 0.35-3.95 0.73-7.9 1.12-11.8 0.19-1.9 0.37-3.8 0.56-5.7 0.12-1.2 0.12-1.2 0.24-2.42 0.55-6 0.51-11.7 0.51-17.8h-415z"
        fill="#112b3c" />
    <path transform="translate(887 792)"
        d="m0 0c4.16 3.57 8.07 7.37 11.9 11.2 1.4 1.39 2.81 2.76 4.27 4.09 23 21.2 35.7 56.2 37.3 86.8 1.24 41.5-12.6 76.8-40.6 107-25.1 26.1-60.6 39.9-96.5 41.5-38.1 0.72-73.5-14.1-101-40.1-0.74-0.67-1.47-1.35-2.23-2.04-24.5-23.2-38.9-58.3-40-91.7-0.83-40.8 13.3-76.9 41.4-106 4.32-4.32 8.9-8.12 13.8-11.8 1-0.75 1.99-1.5 3.02-2.27 49.3-35.6 121-35.3 169 3.61zm-170 42.4c-18.5 23-26 51.5-23.6 80.6 3.09 27.8 17.9 52.5 38.8 70.7 22.5 17.6 51 26.8 79.6 23.5 29.3-3.88 55.7-18.2 74-41.7 17.5-24.2 25-53.3 20.3-82.9-3.69-20.9-13.1-39-26.9-54.9-0.64-0.75-1.29-1.49-1.95-2.26-17.7-18.9-44.5-31-70.3-32.1-36.2-0.67-66 11.8-90 39.1z"
        fill="#112b3c" />
</svg>