<svg xmlns="http://www.w3.org/2000/svg" viewBox="0 0 206 206">
    <defs>
        <clipPath id="clipPath">
            <rect id="Rectangle_3" data-name="Rectangle 3" width="206" height="206" />
        </clipPath>
        <clipPath id="clipPath-2">
            <rect id="Rectangle_23" data-name="Rectangle 23" width="82.016" height="82.016" rx="41.008"
                transform="translate(0)" fill="#04427d" />
        </clipPath>
        <filter id="Path_52">
            <feOffset dy="1" />
            <feGaussianBlur stdDeviation="3" result="blur" />
            <feFlood floodOpacity="0.161" result="color" />
            <feComposite operator="out" in="SourceGraphic" in2="blur" />
            <feComposite operator="in" in="color" />
            <feComposite operator="in" in2="SourceGraphic" />
        </filter>
        <filter id="Path_53">
            <feOffset dy="1" />
            <feGaussianBlur stdDeviation="3" result="blur-2" />
            <feFlood floodOpacity="0.161" result="color-2" />
            <feComposite operator="out" in="SourceGraphic" in2="blur-2" />
            <feComposite operator="in" in="color-2" />
            <feComposite operator="in" in2="SourceGraphic" />
        </filter>
        <filter id="Path_54">
            <feOffset dy="1" />
            <feGaussianBlur stdDeviation="3" result="blur-3" />
            <feFlood floodOpacity="0.161" result="color-3" />
            <feComposite operator="out" in="SourceGraphic" in2="blur-3" />
            <feComposite operator="in" in="color-3" />
            <feComposite operator="in" in2="SourceGraphic" />
        </filter>
        <filter id="Path_55">
            <feOffset dx="2" dy="3" />
            <feGaussianBlur stdDeviation="5" result="blur-4" />
            <feFlood floodOpacity="0.161" result="color-4" />
            <feComposite operator="out" in="SourceGraphic" in2="blur-4" />
            <feComposite operator="in" in="color-4" />
            <feComposite operator="in" in2="SourceGraphic" />
        </filter>
        <filter id="Path_56">
            <feOffset dx="2" dy="3" />
            <feGaussianBlur stdDeviation="5" result="blur-5" />
            <feFlood floodOpacity="0.161" result="color-5" />
            <feComposite operator="out" in="SourceGraphic" in2="blur-5" />
            <feComposite operator="in" in="color-5" />
            <feComposite operator="in" in2="SourceGraphic" />
        </filter>
    </defs>
    <g id="Web_1920_1" data-name="Web 1920 – 1" clipPath="url(#clipPath)">
        <g id="logo" transform="translate(10.999 15.91)">
            <g id="Icon_1_" transform="translate(0 0)">
                <g id="Orange_x5F_Shape_2_" transform="translate(44.98 9.387)">
                    <g id="Group_1" data-name="Group 1">
                        <path id="Path_1" data-name="Path 1"
                            d="M338.085-.586s-7.9-18.3-34.9-33.7c0,0,21.4,23.7,3.7,57.292,0,0-12.2,23.1-42.294,24.9H239.1s-16.2,1.2-16.8,18.1c0,0,.8,17.2,17.4,18.1,16.6.8,48.994-1.6,54.793.6,0,0,20.2,2.1,19.9,28.7,0,0,29.7-20.8,34.9-56.693C349.283,56.706,354.883,26.21,338.085-.586Z"
                            transform="translate(-222.3 34.282)" fill="#ff8727" />
                    </g>
                </g>
                <g id="Blue_x5F_Shape_2_" transform="translate(0 10.087)">
                    <g id="Group_2" data-name="Group 2">
                        <path id="Path_2" data-name="Path 2"
                            d="M295.784,96c-4.1-4.5-45.394-1.9-45.394-1.9-34.1,2.2-37.3-22.4-37.3-22.4-4.1-26.3,21.2-33,21.2-33-40.695-32-11.2-72.291-11.2-72.291C164.4-1.786,178.9,62.405,178.9,62.405,191.4,117.1,242.991,128.5,242.991,128.5c40.595,7.5,57.892-6.9,57.892-6.9C311.182,106.6,295.784,96,295.784,96Z"
                            transform="translate(-177.315 33.582)" fill="#0a6cc7" />
                    </g>
                </g>
                <path id="Path_3" data-name="Path 3"
                    d="M256.9,93.818s26.3-1.8,35,.4h0a17.488,17.488,0,0,1,7.8,3.4s3.8,3.1,4.9,7.3c1.4,4.9.6,11.1-1.5,14.2,0,0-1.2,2.8-8.5,6.2h0a75.59,75.59,0,0,1-16.9,4.3h0l-21.1-35.8h.3"
                    transform="translate(-177.325 43.652)" fill="#0a6cc7" />
                <g id="Mask_Group_6" data-name="Mask Group 6" transform="translate(45.507)" clipPath="url(#clipPath-2)">
                    <g id="Group_64" data-name="Group 64" transform="translate(0)">
                        <g id="Group_63" data-name="Group 63">
                            <g id="Group_62" data-name="Group 62" transform="translate(0 0)">
                                <g id="Group_60" data-name="Group 60" transform="translate(0 0)">
                                    <g id="Group_59" data-name="Group 59" transform="translate(0 0)">
                                        <rect id="Rectangle_20" data-name="Rectangle 20" width="82.016" height="81.986"
                                            transform="translate(0 0)" fill="#04427d" />
                                        <g data-type="innerShadowGroup">
                                            <path id="Path_52-2" data-name="Path 52"
                                                d="M-14464.219-11645.973s-21.747-16.391.882-34.631c-1.933,0-12.189,6.011-11.595,18.254-.3.816-.441,3.153-3.968.939-.046-.415,5.39-2.869-.935-8.793-1.848-1.688-9.719-12.522,9.631-13.444,1.231.089,6.039.129,8.779,1.817.237.135,2.771.533,1.965-.74-.572-.52-7.615-4.256-3.878-12.361.649-1.084,3.03-3.029,2.811-7.376.4-2.194,1.056-9.308,8.707-.483.836.967,16,13.567,8,17.163-1.144.913-3.384,2.276-4.034,2.146,0,.624,5.588-1.171,7.91-1.975.885-.078,4.527,0,4.527,0s-5.329,5.814-2.653,27.928c.371.891,1.739,3.979,6.771,3.865.857.229,4.059.685,3.373,7.535C-14435.593-11646.129-14464.219-11645.973-14464.219-11645.973Z"
                                                transform="translate(14491.934 11727.988)" fill="#0a6cc7" />
                                            <g transform="matrix(1, 0, 0, 1, -56.51, -15.91)" filter="url(#Path_52)">
                                                <path id="Path_52-3" data-name="Path 52"
                                                    d="M-14464.219-11645.973s-21.747-16.391.882-34.631c-1.933,0-12.189,6.011-11.595,18.254-.3.816-.441,3.153-3.968.939-.046-.415,5.39-2.869-.935-8.793-1.848-1.688-9.719-12.522,9.631-13.444,1.231.089,6.039.129,8.779,1.817.237.135,2.771.533,1.965-.74-.572-.52-7.615-4.256-3.878-12.361.649-1.084,3.03-3.029,2.811-7.376.4-2.194,1.056-9.308,8.707-.483.836.967,16,13.567,8,17.163-1.144.913-3.384,2.276-4.034,2.146,0,.624,5.588-1.171,7.91-1.975.885-.078,4.527,0,4.527,0s-5.329,5.814-2.653,27.928c.371.891,1.739,3.979,6.771,3.865.857.229,4.059.685,3.373,7.535C-14435.593-11646.129-14464.219-11645.973-14464.219-11645.973Z"
                                                    transform="translate(14548.44 11743.9)" fill="#fff" />
                                            </g>
                                        </g>
                                        <g data-type="innerShadowGroup">
                                            <path id="Path_53-2" data-name="Path 53"
                                                d="M-14312.778-11624.859s-4.238,4.887-2.992,14.081c.405.52,2.32-4.286,2.32-4.286s.916-8.219,4.435-9.795C-14311.982-11625.74-14312.778-11624.859-14312.778-11624.859Z"
                                                transform="translate(14370.307 11668.336)" fill="#0a6cc7" />
                                            <g transform="matrix(1, 0, 0, 1, -56.51, -15.91)" filter="url(#Path_53)">
                                                <path id="Path_53-3" data-name="Path 53"
                                                    d="M-14312.778-11624.859s-4.238,4.887-2.992,14.081c.405.52,2.32-4.286,2.32-4.286s.916-8.219,4.435-9.795C-14311.982-11625.74-14312.778-11624.859-14312.778-11624.859Z"
                                                    transform="translate(14426.81 11684.25)" fill="#fff" />
                                            </g>
                                        </g>
                                        <g data-type="innerShadowGroup">
                                            <path id="Path_54-2" data-name="Path 54"
                                                d="M-14307.41-11620.469s-6.142-.572,0-4.937a7.371,7.371,0,0,1,5.022,0s10,2.708,3.363,14.431c-1.056,1.361-4.224,5.487-8.622,4.916a1.616,1.616,0,0,0-2.727.922c1.012.176,4.486,1.142-.88,2.811-.4.923-1.055,2.5,1.76,4.128.439.965-.835,3.819-4.53-.22-1.012-2.284-3.947-9.238,4.53-19.715"
                                                transform="translate(14369.831 11668.794)" fill="#0a6cc7" />
                                            <g transform="matrix(1, 0, 0, 1, -56.51, -15.91)" filter="url(#Path_54)">
                                                <path id="Path_54-3" data-name="Path 54"
                                                    d="M-14307.41-11620.469s-6.142-.572,0-4.937a7.371,7.371,0,0,1,5.022,0s10,2.708,3.363,14.431c-1.056,1.361-4.224,5.487-8.622,4.916a1.616,1.616,0,0,0-2.727.922c1.012.176,4.486,1.142-.88,2.811-.4.923-1.055,2.5,1.76,4.128.439.965-.835,3.819-4.53-.22-1.012-2.284-3.947-9.238,4.53-19.715"
                                                    transform="translate(14426.34 11684.7)" fill="#fff" />
                                            </g>
                                        </g>
                                        <g data-type="innerShadowGroup">
                                            <path id="Path_55-2" data-name="Path 55"
                                                d="M-14293.51-11536.738s4.2,1.987,2.172,5.234a1.406,1.406,0,0,1-1.926,0s1.457-1.74-1.223-4.547C-14294.613-11537.258-14293.51-11536.738-14293.51-11536.738Z"
                                                transform="translate(14353.829 11603.912)" fill="#0a6cc7" />
                                            <g transform="matrix(1, 0, 0, 1, -56.51, -15.91)" filter="url(#Path_55)">
                                                <path id="Path_55-3" data-name="Path 55"
                                                    d="M-14293.51-11536.738s4.2,1.987,2.172,5.234a1.406,1.406,0,0,1-1.926,0s1.457-1.74-1.223-4.547C-14294.613-11537.258-14293.51-11536.738-14293.51-11536.738Z"
                                                    transform="translate(14410.34 11619.82)" fill="#fff" />
                                            </g>
                                        </g>
                                        <g data-type="innerShadowGroup">
                                            <path id="Path_56-2" data-name="Path 56"
                                                d="M-14295.7-11535.049s4.918,1.611,2.889,4.859c-.817.974-1.926,0-1.926,0s1.813-1.885-1.732-4.01C-14296.753-11535.111-14295.7-11535.049-14295.7-11535.049Z"
                                                transform="translate(14358.019 11601.515)" fill="#0a6cc7" />
                                            <g transform="matrix(1, 0, 0, 1, -56.51, -15.91)" filter="url(#Path_56)">
                                                <path id="Path_56-3" data-name="Path 56"
                                                    d="M-14295.7-11535.049s4.918,1.611,2.889,4.859c-.817.974-1.926,0-1.926,0s1.813-1.885-1.732-4.01C-14296.753-11535.111-14295.7-11535.049-14295.7-11535.049Z"
                                                    transform="translate(14414.52 11617.42)" fill="#fff" />
                                            </g>
                                        </g>
                                        <path id="Path_6" data-name="Path 6"
                                            d="M265.042-11.617c0,1.543-.441,2.865-1.766,2.865S261.4-9.964,261.4-11.617s.662-2.865,1.876-2.865S265.042-13.27,265.042-11.617Z"
                                            transform="translate(-222.454 44.071)" fill="#fff" />
                                        <path id="Path_7" data-name="Path 7"
                                            d="M258.542-12.617c0,1.543-.441,2.865-1.766,2.865s-1.876-1.212-1.876-2.865.993-2.865,1.876-2.865C257.88-15.482,258.542-14.27,258.542-12.617Z"
                                            transform="translate(-223.128 43.969)" fill="#fff" />
                                        <ellipse id="Ellipse_8" data-name="Ellipse 8" cx="0.552" cy="0.992" rx="0.552"
                                            ry="0.992" transform="translate(33.98 30.911)" fill="#4e4e4e" />
                                        <ellipse id="Ellipse_9" data-name="Ellipse 9" cx="0.662" cy="1.102" rx="0.662"
                                            ry="1.102" transform="translate(40.27 31.352)" fill="#4e4e4e" />
                                        <g id="Group_65" data-name="Group 65" transform="translate(33.468 34.778)">
                                            <path id="Subtraction_7" data-name="Subtraction 7"
                                                d="M2.575,2.414H1.284a1.694,1.694,0,0,1-1.1-.661A1.616,1.616,0,0,1,0,.933,2,2,0,0,1,.05.523,1.213,1.213,0,0,1,.173.2.325.325,0,0,1,.433,0,.256.256,0,0,1,.578.05.65.65,0,0,1,.732.21l.331.992a.2.2,0,0,0,.088.07.917.917,0,0,0,.406.071,2.793,2.793,0,0,0,.389-.031,2.049,2.049,0,0,1,.315-.022c.093,0,.185,0,.294.011l.019,1.113Z"
                                                transform="translate(0 0)" fill="#fff" />
                                            <path id="Subtraction_8" data-name="Subtraction 8"
                                                d="M1.055,2.414H0V1.29L.164,1.3h0l.228.013a2.791,2.791,0,0,0,.388.031.918.918,0,0,0,.406-.071A.2.2,0,0,0,1.276,1.2L1.607.21A.651.651,0,0,1,1.762.05.257.257,0,0,1,1.906,0a.325.325,0,0,1,.261.2,1.213,1.213,0,0,1,.122.326,2,2,0,0,1,.05.41,1.615,1.615,0,0,1-.18.82,1.694,1.694,0,0,1-1.1.661Z"
                                                transform="translate(2.255 0)" fill="#fff" />
                                        </g>
                                        <g id="Group_56" data-name="Group 56" transform="translate(26.836 9.009)">
                                            <path id="Path_10" data-name="Path 10"
                                                d="M251.278-26.4s1.485-3.46,2.97-.4a11.3,11.3,0,0,1-1.089,6.327c-1.287,2.274-1.188,3.163-2.277,4.547-.99,1.285-1.683-.593-1.782-1.087a30.946,30.946,0,0,1,.4-5.734,25.3,25.3,0,0,1,1.782-3.658Z"
                                                transform="translate(-249.091 35.604)" fill="#ff8727" />
                                            <g id="Layer_10" transform="translate(21.983 5.867)">
                                                <path id="Path_11" data-name="Path 11"
                                                    d="M271.3-28.892s5.545,3.065,7.525,4.943c1.881,1.681,3.565,3.361,4.654,4.449.99,1.186,1.188-2.175.891-2.966a13.328,13.328,0,0,0-5.941-6.327C274.865-30.474,271.1-29.584,271.3-28.892Z"
                                                    transform="translate(-271.293 29.756)" fill="#ff8727" />
                                            </g>
                                            <g id="Layer_9" transform="translate(24.178 11.053)">
                                                <path id="Path_12" data-name="Path 12"
                                                    d="M279.441-9.852a9.684,9.684,0,0,0,2.673-.89,4.524,4.524,0,0,0,.891-5.239,25.5,25.5,0,0,0-5.545-6.525c-1.683-1.186-2.772-1.878-2.772-1.878s-1.881-.791-.891,1.582c1.089,2.373,1.089,1.878,2.673,5.042S279.54-12.817,279.441-9.852Z"
                                                    transform="translate(-273.509 24.51)" fill="#ff8727" />
                                            </g>
                                            <g id="Layer_8" transform="translate(6.339 0)">
                                                <path id="Path_13" data-name="Path 13"
                                                    d="M276.59-8.793s1.089-1.582,0-5.141c0,0-6.238-13.444-9.6-16.509l-4.456-4.745a2.027,2.027,0,0,0-2.673,0l-3.664,3.163a1.719,1.719,0,0,0-.7,1.384,1.719,1.719,0,0,0,.7,1.384,64.947,64.947,0,0,0,7.03,8.9C263.322-20.458,273.719-9.485,276.59-8.793Z"
                                                    transform="translate(-255.493 35.691)" fill="#ff8727" />
                                            </g>
                                        </g>
                                        <g id="Group_58" data-name="Group 58" transform="translate(31.272 37.192)">
                                            <g id="Group_57" data-name="Group 57" transform="translate(0 0)">
                                                <path id="Path_57" data-name="Path 57"
                                                    d="M113.337,289.221a.446.446,0,0,0-.569.271,3.855,3.855,0,0,1-7.265,0,.446.446,0,0,0-.841.3,4.748,4.748,0,0,0,8.947,0A.445.445,0,0,0,113.337,289.221Z"
                                                    transform="translate(-104.636 -289.196)" fill="#fff" />
                                            </g>
                                        </g>
                                    </g>
                                </g>
                                <g id="Group_61" data-name="Group 61" transform="translate(20.281 50.65)">
                                    <path id="Path_58" data-name="Path 58" d="M-14097.658-9443.447s-8.416-1.3,0,1.012"
                                        transform="translate(14131.532 9449.927)" fill="#04427d" />
                                    <path id="Path_59" data-name="Path 59"
                                        d="M-14215.537-9468.047s-6.187-1.186-.164,1.023"
                                        transform="translate(14218.336 9468.364)" fill="#04427d" />
                                </g>
                            </g>
                        </g>
                    </g>
                </g>
            </g>
        </g>
    </g>
</svg>